<svg width="377" height="60" viewBox="0 0 377 60" fill="none" xmlns="http://www.w3.org/2000/svg">
<path d="M0 60L377 60V0.563461C377 0.563461 369.5 8.62265 361.003 8.62265C352.506 8.62265 347.655 0.730976 340.207 0.563461C332.758 0.395947 329.891 8.24935 322.076 8.62265C313.309 9.04144 310.047 0.144676 301.28 0.563461C293.465 0.936768 290.974 8.70847 283.15 8.62265C275.513 8.5389 273.188 0.383026 265.553 0.563461C258.291 0.735096 256.282 8.37138 249.023 8.62265C241.203 8.89331 238.708 0.936768 230.893 0.563461C222.125 0.144676 218.874 8.5496 210.096 8.62265C201.125 8.69732 197.684 -0.362217 188.767 0.563461C181.729 1.29401 179.847 8.44671 172.769 8.62265C165.322 8.80779 163.145 0.953838 155.706 0.563461C147.324 0.123611 144.363 8.96593 135.976 8.62265C128.346 8.31035 126.009 0.875763 118.379 0.563461C109.992 0.220188 107.042 8.47333 98.6492 8.62265C89.8724 8.7788 86.6313 0.563461 77.8529 0.563461C69.0745 0.563461 65.8334 8.7788 57.0566 8.62265C48.6635 8.47333 44.6534 -2.37308 37.3267 0.563461C30 3.5 27.2299 8.62265 17.5 8.62265C7.77014 8.62265 0 0.563461 0 0.563461V60Z" fill="url(#paint0_linear_2275_8773)"/>
<defs>
<linearGradient id="paint0_linear_2275_8773" x1="188.5" y1="7.15965e-07" x2="188.5" y2="60" gradientUnits="userSpaceOnUse">
<stop stop-color="#D4FC9C"/>
<stop offset="1" stop-color="#F8FFEA"/>
</linearGradient>
</defs>
</svg>
