<svg width="22" height="24" viewBox="0 0 22 24" fill="none" xmlns="http://www.w3.org/2000/svg">
<path fill-rule="evenodd" clip-rule="evenodd" d="M14.76 11.6884H11.61C11.2 11.6884 10.86 11.3484 10.86 10.9384C10.86 10.5284 11.2 10.1884 11.61 10.1884H14.76C15.17 10.1884 15.51 10.5284 15.51 10.9384C15.51 11.3484 15.17 11.6884 14.76 11.6884ZM21.13 6.25844C20.77 5.77844 20.22 5.53844 19.62 5.50844L6.1 5.61844L5.48 2.97844C5.4 2.63844 5.09 2.39844 4.75 2.39844H2.75C2.34 2.39844 2 2.72844 2 3.14844C2 3.55844 2.34 3.89844 2.75 3.89844H4.15L6.67 14.5484C6.99 15.9084 8.21 16.8484 9.58 16.8484C9.67 16.8484 9.76004 16.8484 9.85004 16.8384L16.79 16.1984C18.11 16.0784 19.2 15.1784 19.59 13.9184L21.42 7.91844C21.59 7.33844 21.49 6.73844 21.13 6.25844Z" fill="#FCFCFC"/>
<path fill-rule="evenodd" clip-rule="evenodd" d="M8.58256 19.1387C7.90356 19.1387 7.35156 19.6907 7.35156 20.3697C7.35156 21.0497 7.90356 21.6017 8.58256 21.6017C9.26156 21.6017 9.81459 21.0497 9.81459 20.3697C9.81459 19.6907 9.26156 19.1387 8.58256 19.1387Z" fill="#FCFCFC"/>
<path fill-rule="evenodd" clip-rule="evenodd" d="M17.7935 19.1387C17.1145 19.1387 16.5625 19.6907 16.5625 20.3697C16.5625 21.0497 17.1145 21.6017 17.7935 21.6017C18.4725 21.6017 19.0255 21.0497 19.0255 20.3697C19.0255 19.6907 18.4725 19.1387 17.7935 19.1387Z" fill="#FCFCFC"/>
</svg>
