<svg width="20" height="20" viewBox="0 0 20 20" fill="none" xmlns="http://www.w3.org/2000/svg">
<path d="M8.3987 14.045C7.83813 14.0436 7.29427 13.854 6.85448 13.5064C6.4147 13.1587 6.1045 12.6735 5.9737 12.1283L3.87369 3.25H2.70703C2.54127 3.25 2.3823 3.18415 2.26509 3.06694C2.14787 2.94973 2.08203 2.79076 2.08203 2.625C2.08203 2.45924 2.14787 2.30027 2.26509 2.18306C2.3823 2.06585 2.54127 2 2.70703 2H4.3737C4.5145 2.00015 4.65114 2.04778 4.76152 2.13518C4.87191 2.22258 4.94959 2.34465 4.98203 2.48167L5.50286 4.6875L16.7704 4.59583C17.0134 4.59403 17.2534 4.64938 17.4712 4.75742C17.6889 4.86545 17.8782 5.02314 18.0238 5.21777C18.1694 5.41241 18.2671 5.63853 18.3092 5.87791C18.3514 6.11728 18.3366 6.3632 18.2662 6.59583L16.7387 11.5958C16.5844 12.1083 16.2804 12.5629 15.8655 12.9011C15.4508 13.2392 14.9442 13.4455 14.4112 13.4933L8.62953 14.0291C8.5512 14.0416 8.47453 14.045 8.3987 14.045ZM5.79536 5.93333L7.19036 11.84C7.26092 12.1301 7.43296 12.3854 7.67538 12.5596C7.9178 12.7338 8.21459 12.8155 8.51203 12.79L14.2904 12.25C14.5764 12.2249 14.8485 12.1146 15.0713 11.9334C15.2941 11.7521 15.4575 11.5083 15.5404 11.2333L17.0687 6.22833C17.0828 6.1832 17.0859 6.13534 17.0776 6.08879C17.0693 6.04223 17.0499 5.99835 17.0212 5.96083C16.9594 5.89023 16.8723 5.84681 16.7787 5.84L5.79536 5.93333Z" fill="#191B1C"/>
<path d="M12.7073 9.73828H10.0898C9.92409 9.73828 9.76509 9.67245 9.64793 9.5552C9.53068 9.43803 9.46484 9.27903 9.46484 9.11328C9.46484 8.94753 9.53068 8.78853 9.64793 8.67136C9.76509 8.55411 9.92409 8.48828 10.0898 8.48828H12.7073C12.8731 8.48828 13.0321 8.55411 13.1493 8.67136C13.2665 8.78853 13.3323 8.94753 13.3323 9.11328C13.3323 9.27903 13.2665 9.43803 13.1493 9.5552C13.0321 9.67245 12.8731 9.73828 12.7073 9.73828Z" fill="#191B1C"/>
<path d="M11.4023 11.0472C11.2366 11.0472 11.0776 10.9814 10.9604 10.8641C10.8432 10.7469 10.7773 10.5879 10.7773 10.4222V7.80469C10.7773 7.63893 10.8432 7.47995 10.9604 7.36275C11.0776 7.24553 11.2366 7.17969 11.4023 7.17969C11.5681 7.17969 11.7271 7.24553 11.8443 7.36275C11.9615 7.47995 12.0273 7.63893 12.0273 7.80469V10.4222C12.0273 10.5879 11.9615 10.7469 11.8443 10.8641C11.7271 10.9814 11.5681 11.0472 11.4023 11.0472Z" fill="#191B1C"/>
<path d="M7.6087 18.0006C8.17571 18.0006 8.63537 17.5409 8.63537 16.9739C8.63537 16.4069 8.17571 15.9473 7.6087 15.9473C7.04169 15.9473 6.58203 16.4069 6.58203 16.9739C6.58203 17.5409 7.04169 18.0006 7.6087 18.0006Z" fill="#191B1C"/>
<path d="M15.2836 17.9989C15.0808 17.9989 14.8825 17.9387 14.7138 17.8261C14.5451 17.7134 14.4136 17.5532 14.336 17.3658C14.2583 17.1785 14.238 16.9722 14.2775 16.7732C14.317 16.5743 14.4146 16.3915 14.558 16.248C14.7014 16.1045 14.884 16.0067 15.083 15.9671C15.282 15.9274 15.4882 15.9476 15.6756 16.0251C15.8631 16.1027 16.0234 16.234 16.1362 16.4026C16.249 16.5712 16.3093 16.7694 16.3095 16.9722C16.309 17.2442 16.2009 17.505 16.0086 17.6974C15.8163 17.8898 15.5556 17.9982 15.2836 17.9989Z" fill="#191B1C"/>
</svg>
