<svg width="19" height="21" viewBox="0 0 19 21" fill="none" xmlns="http://www.w3.org/2000/svg">
<path fill-rule="evenodd" clip-rule="evenodd" d="M0.691005 0.100192C0.576394 0.146507 0.373407 0.395656 0.240104 0.654003C0.0438385 1.03389 -0.00190759 1.94853 5.99803e-05 5.44302C0.00268341 10.1084 0.050889 10.4078 0.863168 10.798C1.25849 10.9877 1.30931 11.1035 1.30931 11.8127C1.30931 12.6393 1.59428 13.1294 2.07486 13.1294C2.21243 13.1294 2.81844 12.6522 3.4215 12.069L4.51793 11.0087L5.90605 10.9604C7.16858 10.9166 7.29401 10.8824 7.29401 10.5837C7.29401 10.2821 7.1689 10.2513 5.76963 10.2079L4.24526 10.1606L3.19589 11.1698L2.14652 12.1792L2.09683 11.2173L2.04715 10.2552L1.47328 10.1731L0.899404 10.091L0.855789 5.59445C0.8248 2.41431 0.866775 1.03208 0.998766 0.872604C1.25307 0.565643 9.82595 0.5392 10.1306 0.844355C10.2696 0.983628 10.3273 1.94656 10.3273 4.12911C10.3273 7.10724 10.339 7.21679 10.6553 7.21679C10.9722 7.21679 10.9832 7.10724 10.9832 3.96061C10.9832 0.769462 10.9757 0.697362 10.6038 0.34737C10.2318 -0.00262069 10.1321 -0.00935442 5.56189 0.0032919C2.99749 0.0103541 0.805616 0.0540414 0.691005 0.100192ZM5.11329 2.56705C4.83077 3.11494 2.94896 8.14243 2.94896 8.34921C2.94896 8.46549 3.1021 8.53086 3.3041 8.50113C3.54251 8.46582 3.72238 8.2597 3.85125 7.87374L4.04325 7.29891L5.525 7.25194C6.89787 7.20841 7.01314 7.2296 7.09397 7.53935C7.18907 7.9033 7.87379 8.01876 7.85952 7.66844C7.85493 7.55561 7.42075 6.31759 6.89459 4.91746C6.12412 2.86711 5.8726 2.36191 5.60239 2.32069C5.40563 2.2908 5.20314 2.39295 5.11329 2.56705ZM4.94604 4.97166C4.65927 5.72781 4.42464 6.39445 4.42464 6.45308C4.42464 6.51188 4.93932 6.55984 5.56829 6.55984H6.71194L6.21414 5.20487C5.94032 4.45956 5.66027 3.79292 5.5919 3.72345C5.52336 3.65381 5.23265 4.2155 4.94604 4.97166ZM8.43438 8.27695L8.03185 8.67999V13.3757V18.0714L8.43438 18.4745C8.83068 18.8716 8.88004 18.8777 11.6773 18.8777H14.5179L15.5742 19.9452C17.0523 21.4391 17.7057 21.3498 17.7057 19.6539C17.7057 19.0457 17.7697 18.9012 18.107 18.7473C19.0089 18.3357 19.0366 18.1601 18.984 13.2144L18.9355 8.66603L18.4754 8.26988L18.0153 7.87374H13.4261H8.83675L8.43438 8.27695ZM8.78822 8.95213C8.73296 9.09649 8.68771 11.1248 8.68771 13.4595C8.68771 17.0996 8.72443 17.7413 8.94529 17.9627C9.15959 18.1772 9.67821 18.2207 12.0249 18.2207H14.8467L15.8252 19.2131L16.8039 20.2055L16.8859 19.2748C16.9646 18.3814 16.9909 18.3367 17.5418 18.1593L18.1157 17.9744V13.3757V8.77705L13.5022 8.73353C9.40226 8.69477 8.87758 8.71907 8.78822 8.95213ZM13.0328 10.0363C12.3371 10.4501 12.1059 11.1546 12.4525 11.8036C12.5745 12.0319 12.5155 12.1873 12.191 12.4908C11.2485 13.3728 11.0567 14.5198 11.6692 15.6116C12.058 16.3042 13.0619 16.9068 13.8277 16.9068C14.568 16.9068 15.4102 16.4742 15.4102 16.094C15.4102 15.7381 14.8644 15.6103 14.6724 15.9214C14.4878 16.2205 13.1879 16.1083 12.7388 15.7545C12.1236 15.2699 11.8927 14.4464 12.1795 13.7594C12.5087 12.9702 12.8817 12.7294 13.9188 12.6366C14.6998 12.5667 14.8364 12.5056 14.8364 12.226C14.8364 11.9534 14.7108 11.8892 14.0985 11.8488C13.2497 11.7926 12.8709 11.4507 13.1269 10.9716C13.2976 10.6522 14.0085 10.5513 14.1761 10.8228C14.3058 11.033 14.7544 10.8494 14.7544 10.5861C14.7544 10.0693 13.5979 9.6999 13.0328 10.0363Z" fill="white"/>
</svg>
