<svg width="299" height="228" viewBox="0 0 299 228" fill="none" xmlns="http://www.w3.org/2000/svg">
<g clip-path="url(#clip0_158_1991)">
<path d="M299 189.675H0V189.825H299V189.675Z" fill="#FDEEEE"/>
<path d="M269.043 199.297H256.078V199.447H269.043V199.297Z" fill="#FDEEEE"/>
<path d="M206.117 196.2H185.719V196.349H206.117V196.2Z" fill="#FDEEEE"/>
<path d="M263.793 193.748H237.164V193.897H263.793V193.748Z" fill="#FDEEEE"/>
<path d="M103.466 196.762H96.8047V196.911H103.466V196.762Z" fill="#FDEEEE"/>
<path d="M91.4728 196.762H68.5156V196.911H91.4728V196.762Z" fill="#FDEEEE"/>
<path d="M56.2209 194.238H39.6562V194.388H56.2209V194.238Z" fill="#FDEEEE"/>
<path d="M141.728 163.005H26.2602C25.3556 163.003 24.4886 162.643 23.8496 162.002C23.2105 161.362 22.8516 160.495 22.8516 159.59V-2.72518C22.8594 -3.62456 23.2218 -4.48451 23.8601 -5.11825C24.4983 -5.75199 25.3608 -6.10832 26.2602 -6.10986H141.728C142.634 -6.10986 143.502 -5.75011 144.142 -5.10976C144.783 -4.4694 145.143 -3.60089 145.143 -2.69528V159.59C145.143 160.496 144.783 161.364 144.142 162.004C143.502 162.645 142.634 163.005 141.728 163.005ZM26.2602 -5.99026C25.3952 -5.98868 24.5663 -5.64398 23.9553 -5.03183C23.3442 -4.41968 23.0011 -3.5901 23.0011 -2.72518V159.59C23.0011 160.455 23.3442 161.284 23.9553 161.897C24.5663 162.509 25.3952 162.853 26.2602 162.855H141.728C142.593 162.853 143.423 162.509 144.035 161.897C144.647 161.285 144.992 160.455 144.993 159.59V-2.72518C144.992 -3.59065 144.647 -4.42022 144.035 -5.0322C143.423 -5.64418 142.593 -5.98868 141.728 -5.99026H26.2602Z" fill="#FDEEEE"/>
<path d="M271.076 163.005H155.602C154.697 163.003 153.829 162.643 153.189 162.003C152.549 161.363 152.189 160.495 152.188 159.59V-2.72518C152.197 -3.62511 152.561 -4.48505 153.2 -5.11862C153.839 -5.75219 154.702 -6.10834 155.602 -6.10986H271.076C271.974 -6.10675 272.835 -5.74972 273.472 -5.11615C274.109 -4.48258 274.471 -3.62353 274.479 -2.72518V159.59C274.479 160.493 274.12 161.36 273.483 162C272.845 162.64 271.979 163.001 271.076 163.005ZM155.602 -5.99026C154.737 -5.98868 153.907 -5.64418 153.295 -5.0322C152.683 -4.42022 152.339 -3.59065 152.337 -2.72518V159.59C152.339 160.455 152.683 161.285 153.295 161.897C153.907 162.509 154.737 162.853 155.602 162.855H271.076C271.941 162.853 272.771 162.509 273.383 161.897C273.995 161.285 274.339 160.455 274.341 159.59V-2.72518C274.339 -3.59065 273.995 -4.42022 273.383 -5.0322C272.771 -5.64418 271.941 -5.98868 271.076 -5.99026H155.602Z" fill="#FDEEEE"/>
<path d="M129.207 81.1266L129.476 73.2689L124.656 71.6902C124.449 69.0273 124.017 66.3866 123.364 63.7966L127.455 60.8066L124.68 53.4272L119.621 53.8339C118.421 51.4564 117.021 49.1857 115.435 47.0466L118.054 42.6752L112.672 36.9284L108.151 39.2427C106.118 37.505 103.946 35.9369 101.657 34.5544L102.386 29.5312L95.2104 26.2781L91.9214 30.1292C89.3841 29.3175 86.7838 28.7175 84.1474 28.3352L82.9514 23.4136L75.0698 23.1445L73.515 27.9704C70.8547 28.1795 68.2164 28.6096 65.6273 29.2561L62.5895 25.1897L55.2102 27.9465L55.6168 33.0056C53.2406 34.2233 50.9702 35.6375 48.8295 37.2334L44.4283 34.5544L38.6576 39.9364L40.9718 44.4812C39.2336 46.5039 37.6731 48.6727 36.3074 50.9635L31.2902 50.21L28.0131 57.386L31.8882 60.669C31.0708 63.2048 30.4706 65.8055 30.0942 68.443L25.1129 69.6928L24.8438 77.5506L29.6876 79.1293C29.8879 81.7906 30.3181 84.4297 30.9732 87.0169L26.8829 90.0069L29.6636 97.3922L34.7227 96.9856C35.9191 99.3648 37.3197 101.636 38.9087 103.773L36.2835 108.144L41.6655 113.891L46.1864 111.577C48.214 113.314 50.3822 114.88 52.6687 116.259L51.9152 121.276L59.0912 124.535L62.3981 120.684C64.9354 121.503 67.5354 122.113 70.1721 122.508L71.3682 127.43L79.2498 127.699L80.8046 122.873C83.4666 122.661 86.1067 122.231 88.6982 121.587L91.6882 125.654L99.0675 122.897L98.6848 117.838C101.057 116.612 103.326 115.199 105.472 113.61L109.82 116.229L115.59 110.847L113.276 106.302C115.015 104.28 116.575 102.111 117.94 99.8201L122.958 100.574L126.235 93.3976L122.36 90.1086C123.191 87.5747 123.801 84.9737 124.184 82.3346L129.207 81.1266ZM76.1103 106.583C69.9437 106.375 63.9774 104.343 58.9661 100.743C53.9548 97.1433 50.1237 92.1382 47.9574 86.3609C45.7911 80.5835 45.3869 74.2935 46.796 68.2864C48.205 62.2793 51.364 56.8251 55.8734 52.6136C60.3827 48.4022 66.0398 45.6227 72.129 44.6269C78.2183 43.631 84.4661 44.4635 90.0821 47.0189C95.6982 49.5744 100.43 53.7381 103.679 58.9834C106.929 64.2286 108.549 70.3197 108.337 76.4861C108.053 84.7502 104.498 92.5633 98.4551 98.2073C92.4119 103.851 84.3745 106.864 76.1103 106.583Z" fill="#FDEEEE"/>
<path d="M263.717 55.1373L265.696 53.2894L264.913 51.7287C265.51 51.0293 266.048 50.2812 266.521 49.4921L268.255 49.7493L269.374 47.2736L268.046 46.1433C268.332 45.268 268.542 44.3697 268.674 43.4583L270.378 43.0337L270.462 40.3188L268.8 39.7806C268.727 38.8611 268.579 37.9491 268.357 37.0537L269.762 36.0072L268.806 33.4657L267.065 33.6033C266.646 32.7836 266.16 31.9996 265.612 31.2591L266.515 29.7641L264.655 27.7788L263.101 28.5741C262.4 27.9779 261.652 27.4399 260.864 26.9655L261.115 25.2313L258.646 24.1011L257.509 25.4346C256.632 25.1615 255.734 24.9615 254.824 24.8366L254.4 23.1383L251.685 23.0366L251.141 24.711C250.225 24.781 249.316 24.9291 248.426 25.1535L247.385 23.7482L244.838 24.6991L244.981 26.4452C244.159 26.8608 243.375 27.347 242.637 27.8984L241.13 26.9954L239.145 28.8432L239.916 30.3681C239.314 31.0654 238.774 31.8138 238.302 32.6046L236.573 32.3475L235.449 34.8232L236.783 35.9594C236.506 36.8334 236.306 37.7298 236.185 38.6384L234.474 39.063L234.391 41.7779L236.059 42.3161C236.127 43.2358 236.273 44.1481 236.496 45.043L235.084 46.0835L236.041 48.625L237.787 48.4935C238.207 49.3132 238.693 50.0972 239.24 50.8376L238.337 52.3326L240.197 54.318L241.752 53.5227C242.451 54.1208 243.199 54.6589 243.989 55.1313L243.731 56.8595L246.207 57.9897L247.343 56.6622C248.221 56.9324 249.119 57.1324 250.028 57.2602L250.453 58.9585L253.168 59.0601L253.712 57.3857C254.628 57.3161 255.536 57.1681 256.427 56.9432L257.467 58.3485L260.015 57.3977L259.877 55.6515C260.697 55.2354 261.479 54.7492 262.216 54.1984L263.717 55.1373ZM249.592 43.6975C249.07 43.138 248.725 42.4361 248.602 41.6807C248.479 40.9253 248.582 40.1503 248.899 39.4538C249.217 38.7573 249.734 38.1705 250.384 37.7677C251.035 37.365 251.791 37.1643 252.556 37.191C253.321 37.2178 254.061 37.4709 254.682 37.9182C255.303 38.3655 255.777 38.9869 256.045 39.704C256.313 40.421 256.362 41.2013 256.186 41.9462C256.01 42.6911 255.618 43.3672 255.058 43.8889C254.686 44.2393 254.248 44.5126 253.77 44.6928C253.292 44.8731 252.783 44.9567 252.273 44.9389C251.762 44.9211 251.26 44.8022 250.796 44.5892C250.332 44.3761 249.914 44.073 249.568 43.6975H249.592Z" fill="#FDEEEE"/>
<path d="M191.363 135.819L185.18 131.544C184.573 129.317 183.74 127.159 182.692 125.103L184.277 118.884L175.307 109.28L168.992 110.434C167.011 109.247 164.912 108.267 162.731 107.51L158.892 101.046L145.736 100.597L141.466 106.78C139.242 107.386 137.086 108.218 135.031 109.262L128.812 107.677L119.208 116.647L120.362 122.95C119.177 124.936 118.199 127.038 117.444 129.223L110.98 133.063L110.531 146.219L116.721 150.488C117.317 152.727 118.148 154.896 119.202 156.959L117.6 163.124L126.57 172.728L132.843 171.58C134.839 172.768 136.951 173.75 139.146 174.51L142.979 180.962L156.135 181.417L160.398 175.234C162.642 174.628 164.818 173.794 166.893 172.746L173.076 174.325L182.686 165.355L181.532 159.052C182.721 157.066 183.699 154.962 184.45 152.773L190.914 148.933L191.363 135.819ZM150.43 155.787C147.509 155.687 144.684 154.723 142.311 153.018C139.938 151.312 138.124 148.941 137.098 146.205C136.072 143.469 135.881 140.489 136.548 137.644C137.216 134.799 138.712 132.216 140.847 130.221C142.983 128.226 145.662 126.909 148.545 126.436C151.429 125.964 154.389 126.357 157.049 127.566C159.709 128.776 161.951 130.747 163.492 133.23C165.032 135.713 165.802 138.598 165.703 141.518C165.565 145.435 163.879 149.138 161.015 151.813C158.15 154.488 154.341 155.917 150.424 155.787H150.43Z" fill="#FDEEEE"/>
<path d="M205.445 98.54H205.403L195.045 98.1872C194.836 98.1833 194.63 98.1265 194.448 98.0219C194.266 97.9174 194.114 97.7685 194.005 97.5892L191.212 92.8949C189.707 92.3443 188.251 91.6681 186.859 90.8736L182.392 91.645C182.184 91.6831 181.969 91.668 181.769 91.6011C181.568 91.5342 181.387 91.4177 181.244 91.2623L174.169 83.6916C174.021 83.5348 173.915 83.3424 173.863 83.1329C173.811 82.9234 173.813 82.7039 173.87 82.4956L175 78.0645C174.3 76.6286 173.728 75.1338 173.29 73.5974L168.787 70.4878C168.613 70.3679 168.471 70.2058 168.376 70.0166C168.281 69.8273 168.235 69.6171 168.243 69.4054L168.596 59.0481C168.603 58.839 168.661 58.6348 168.765 58.4534C168.87 58.272 169.017 58.1189 169.194 58.0075L173.9 55.2149C174.443 53.7132 175.117 52.2624 175.915 50.8794L175.09 46.3764C175.052 46.1674 175.066 45.952 175.133 45.7502C175.2 45.5485 175.317 45.3669 175.473 45.2223L183.044 38.1539C183.2 38.0049 183.392 37.8986 183.602 37.8452C183.811 37.7918 184.031 37.7931 184.24 37.849L188.689 38.9852C190.121 38.2846 191.612 37.7103 193.144 37.2689L196.253 32.766C196.369 32.5871 196.53 32.4424 196.721 32.3467C196.911 32.251 197.123 32.2079 197.336 32.2218L207.687 32.5806C207.898 32.585 208.104 32.6421 208.286 32.7465C208.469 32.851 208.623 32.9995 208.734 33.1786L211.526 37.8789C213.021 38.4275 214.465 39.1038 215.844 39.9001L220.365 39.0689C220.573 39.0302 220.787 39.0451 220.988 39.112C221.189 39.1789 221.37 39.2958 221.513 39.4516L228.587 47.0223C228.735 47.1797 228.84 47.3722 228.892 47.5815C228.944 47.7908 228.942 48.01 228.886 48.2183L227.75 52.6614C228.451 54.0944 229.027 55.5849 229.472 57.1165L233.969 60.2261C234.144 60.346 234.285 60.5081 234.38 60.6974C234.476 60.8866 234.521 61.0968 234.513 61.3085L234.161 71.6599C234.154 71.8698 234.095 72.0748 233.991 72.2572C233.887 72.4395 233.74 72.5937 233.563 72.7064L228.856 75.499C228.31 76.9973 227.636 78.4458 226.841 79.8286L227.666 84.3375C227.705 84.5456 227.69 84.7602 227.623 84.961C227.556 85.1618 227.439 85.3423 227.284 85.4856L219.665 92.56C219.508 92.7085 219.316 92.814 219.106 92.8663C218.897 92.9187 218.677 92.9162 218.469 92.859L214.044 91.7288C212.602 92.4261 211.104 93.0003 209.565 93.445L206.485 97.942C206.374 98.1195 206.221 98.2669 206.04 98.3712C205.858 98.4755 205.654 98.5335 205.445 98.54ZM195.823 95.6875L204.793 95.9925L207.783 91.6929C207.948 91.4419 208.203 91.2626 208.494 91.1906C210.177 90.7304 211.81 90.1033 213.368 89.3188C213.64 89.1879 213.949 89.1562 214.241 89.2291L218.427 90.2995L225.005 84.17L224.252 79.8465C224.194 79.5443 224.249 79.2313 224.407 78.9674C225.295 77.4867 226.027 75.9174 226.59 74.2851C226.685 73.9892 226.885 73.7382 227.152 73.5795L231.655 70.9124L231.96 61.9424L227.654 58.9524C227.428 58.7975 227.258 58.5728 227.17 58.3125C227.17 58.2826 227.17 58.2467 227.17 58.2109C226.709 56.5579 226.084 54.9553 225.304 53.4269C225.166 53.1533 225.132 52.8387 225.209 52.5418L226.285 48.308L220.155 41.73L215.856 42.5193C215.556 42.5738 215.246 42.5186 214.983 42.3639C213.499 41.4739 211.928 40.7385 210.294 40.1692C210.201 40.1392 210.11 40.0991 210.025 40.0496C209.853 39.942 209.709 39.7943 209.607 39.619L206.91 35.1041L197.94 34.7932L194.95 39.1048C194.771 39.3575 194.508 39.5379 194.208 39.6131C192.543 40.0682 190.928 40.6913 189.388 41.4728C189.117 41.6113 188.804 41.6454 188.509 41.5685L184.275 40.4921L177.697 46.6216L178.487 50.9093C178.534 51.1798 178.494 51.4581 178.373 51.7046L178.313 51.8063C177.424 53.2927 176.692 54.868 176.131 56.5066C176.032 56.7875 175.837 57.0246 175.581 57.1763L171.078 59.8494L170.773 68.8194L175.084 71.8094C175.33 71.9776 175.508 72.2277 175.587 72.515C176.035 74.1942 176.658 75.8218 177.446 77.3708C177.489 77.459 177.523 77.5511 177.548 77.6459C177.593 77.8426 177.593 78.0471 177.548 78.2439L176.472 82.4299L182.601 89.0079L186.871 88.2245C187.169 88.1699 187.477 88.2251 187.738 88.38C189.233 89.2682 190.814 90.0035 192.456 90.5746C192.752 90.6626 193.003 90.8619 193.156 91.1308L195.823 95.6875ZM201.366 84.3435C201.145 84.3435 200.924 84.3435 200.703 84.3435C195.731 84.2559 190.996 82.2085 187.527 78.6467C184.058 75.085 182.136 70.2972 182.18 65.3255C182.224 60.3538 184.23 55.6006 187.761 52.1004C191.292 48.6003 196.063 46.6365 201.034 46.6365C206.006 46.6365 210.777 48.6003 214.308 52.1004C217.839 55.6006 219.845 60.3538 219.889 65.3255C219.932 70.2972 218.011 75.085 214.542 78.6467C211.073 82.2085 206.337 84.2559 201.366 84.3435ZM201.366 49.0076C197.022 49.0826 192.883 50.8705 189.851 53.9822C186.819 57.0939 185.139 61.2775 185.176 65.6221C185.214 69.9668 186.966 74.1207 190.051 77.1797C193.137 80.2387 197.306 81.955 201.65 81.955C205.995 81.955 210.164 80.2387 213.25 77.1797C216.335 74.1207 218.087 69.9668 218.125 65.6221C218.162 61.2775 216.482 57.0939 213.45 53.9822C210.417 50.8705 206.279 49.0826 201.934 49.0076H201.366Z" fill="#FDEEEE"/>
<path d="M229.293 23.9814L225 22.8333L223.852 18.5396L225.532 16.8652L227.302 20.531L230.974 22.307L229.293 23.9814Z" fill="#FDEEEE"/>
<path d="M229.563 21.111C229.749 20.9252 229.896 20.7048 229.996 20.4621C230.097 20.2194 230.149 19.9594 230.149 19.6967C230.149 19.434 230.097 19.174 229.996 18.9313C229.896 18.6886 229.749 18.4682 229.563 18.2824C229.377 18.0967 229.157 17.9494 228.914 17.8489C228.671 17.7484 228.411 17.6966 228.149 17.6966C227.886 17.6966 227.626 17.7484 227.383 17.8489C227.141 17.9494 226.92 18.0967 226.734 18.2824L228.869 15.0771L231.728 16.5243L232.356 19.5143L229.563 21.111Z" fill="#FDEEEE"/>
<path d="M225.195 17.2124L228.341 14.0669L232.622 15.2091L233.777 19.4967L230.631 22.6422L226.343 21.4881L225.195 17.2124ZM230.906 19.7838C231.186 19.5035 231.377 19.1466 231.454 18.758C231.531 18.3695 231.491 17.9668 231.34 17.6008C231.188 17.2349 230.931 16.9222 230.602 16.7021C230.272 16.4821 229.885 16.3646 229.489 16.3646C229.093 16.3646 228.706 16.4821 228.376 16.7021C228.047 16.9222 227.79 17.2349 227.638 17.6008C227.487 17.9668 227.447 18.3695 227.524 18.758C227.601 19.1466 227.792 19.5035 228.072 19.7838C228.451 20.1554 228.961 20.3626 229.491 20.3604C230.022 20.3581 230.531 20.1466 230.906 19.7718V19.7838Z" fill="#FCDEDE"/>
<path d="M53.9499 138.433L56.2522 137.811L56.8681 135.508L55.9711 134.611L55.0203 136.579L53.0469 137.53L53.9499 138.433Z" fill="#FDEEEE"/>
<path d="M53.8199 136.89C53.64 136.684 53.5449 136.418 53.554 136.145C53.563 135.872 53.6755 135.613 53.8687 135.42C54.0618 135.227 54.3211 135.114 54.5941 135.105C54.8671 135.096 55.1334 135.191 55.3389 135.371L54.1967 133.655L52.6239 134.42L52.2891 136.035L53.8199 136.89Z" fill="#FDEEEE"/>
<path d="M56.1492 134.791L54.4628 133.104L52.1605 133.702L51.5625 136.005L53.219 137.709L55.5213 137.111L56.1492 134.791ZM53.0874 136.172C52.9765 136.075 52.8868 135.956 52.8237 135.823C52.7606 135.69 52.7255 135.545 52.7207 135.398C52.7158 135.251 52.7412 135.104 52.7953 134.967C52.8494 134.83 52.9311 134.705 53.0353 134.601C53.1395 134.497 53.264 134.415 53.4011 134.361C53.5381 134.307 53.6848 134.282 53.8321 134.287C53.9794 134.291 54.1241 134.327 54.2573 134.39C54.3904 134.453 54.5092 134.542 54.6063 134.653C54.7862 134.859 54.8813 135.125 54.8723 135.398C54.8632 135.671 54.7507 135.93 54.5576 136.124C54.3645 136.317 54.1051 136.429 53.8321 136.438C53.5591 136.447 53.2929 136.352 53.0874 136.172Z" fill="#FCDEDE"/>
<path d="M45.6658 12.2249L47.5794 14.1385C47.8187 14.3737 48.1408 14.5055 48.4764 14.5055C48.8119 14.5055 49.134 14.3737 49.3734 14.1385C49.6072 13.8984 49.738 13.5766 49.738 13.2415C49.738 12.9064 49.6072 12.5846 49.3734 12.3445L47.4658 10.4369C47.2257 10.2031 46.9038 10.0723 46.5688 10.0723C46.2337 10.0723 45.9118 10.2031 45.6718 10.4369C45.4375 10.6751 45.3058 10.9956 45.3047 11.3297C45.3036 11.6638 45.4332 11.9851 45.6658 12.2249Z" fill="#FCDEDE"/>
<path d="M44.3154 7.47081C44.8147 7.33196 45.3437 7.34195 45.8375 7.49955C46.3312 7.65715 46.7682 7.95551 47.0947 8.35799C47.4213 8.76046 47.6232 9.24954 47.6757 9.76516C47.7282 10.2808 47.629 10.8005 47.3902 11.2605C47.1514 11.7206 46.7835 12.1008 46.3317 12.3547C45.8798 12.6085 45.3636 12.7249 44.8465 12.6895C44.3295 12.6541 43.834 12.4685 43.4209 12.1554C43.0079 11.8424 42.6952 11.4155 42.5214 10.9273C42.411 10.5825 42.3699 10.2194 42.4004 9.85875C42.4309 9.4981 42.5325 9.14704 42.6992 8.82578C42.866 8.50453 43.0946 8.21943 43.372 7.98689C43.6493 7.75434 43.9699 7.57895 44.3154 7.47081Z" fill="#FDEEEE"/>
<path d="M42.2386 10.6069L42.5156 11.3779L48.1998 9.33599L47.9228 8.56497L42.2386 10.6069Z" fill="#FCDEDE"/>
<path d="M149.501 216.681C213.536 216.681 265.447 213.65 265.447 209.911C265.447 206.173 213.536 203.142 149.501 203.142C85.4656 203.142 33.5547 206.173 33.5547 209.911C33.5547 213.65 85.4656 216.681 149.501 216.681Z" fill="#FCDEDE"/>
<path d="M133.023 143.294C133.855 129.899 132.33 105.543 157.512 108.772C184.499 112.222 176.779 143.785 176.779 143.785L133.023 143.294Z" fill="#8F3535"/>
<path d="M150.405 135.245C156.476 135.245 161.397 130.324 161.397 124.254C161.397 118.184 156.476 113.263 150.405 113.263C144.335 113.263 139.414 118.184 139.414 124.254C139.414 130.324 144.335 135.245 150.405 135.245Z" fill="white"/>
<path d="M151.851 113.281C146.643 112.395 141.087 116.229 140.531 120.116L161.168 122.017C160.439 117.586 155.978 113.986 151.851 113.281Z" fill="#8F3535"/>
<path d="M158.816 123.979C158.667 126.855 157.1 129.11 155.318 129.014C153.536 128.918 152.208 126.52 152.328 123.632C152.447 120.744 154.044 118.501 155.826 118.597C157.608 118.692 158.96 121.108 158.816 123.979Z" fill="#8F3535"/>
<path d="M150.402 135.843C148.11 135.843 145.869 135.163 143.963 133.89C142.057 132.616 140.572 130.806 139.695 128.689C138.818 126.571 138.588 124.241 139.035 121.993C139.482 119.745 140.586 117.68 142.207 116.059C143.828 114.438 145.893 113.334 148.141 112.887C150.389 112.44 152.719 112.67 154.837 113.547C156.954 114.424 158.764 115.909 160.038 117.815C161.311 119.721 161.991 121.962 161.991 124.254C161.988 127.326 160.766 130.272 158.593 132.445C156.42 134.618 153.474 135.84 150.402 135.843ZM150.402 113.867C148.346 113.867 146.336 114.476 144.627 115.619C142.918 116.761 141.586 118.384 140.799 120.284C140.013 122.183 139.807 124.273 140.209 126.29C140.61 128.306 141.601 130.158 143.055 131.611C144.509 133.064 146.361 134.054 148.378 134.454C150.394 134.854 152.484 134.648 154.383 133.86C156.282 133.073 157.905 131.74 159.046 130.03C160.188 128.32 160.796 126.31 160.795 124.254C160.792 121.499 159.696 118.858 157.747 116.91C155.798 114.963 153.157 113.868 150.402 113.867Z" fill="#EE5858"/>
<path opacity="0.3" d="M173.715 142.959H173.643C173.605 142.951 173.568 142.935 173.536 142.912C173.504 142.889 173.477 142.86 173.456 142.827C173.436 142.793 173.422 142.756 173.416 142.717C173.41 142.678 173.412 142.638 173.422 142.6C173.422 142.523 175.347 134.414 173.368 126.215C173.349 126.136 173.362 126.052 173.405 125.983C173.447 125.913 173.516 125.863 173.595 125.844C173.674 125.825 173.758 125.839 173.828 125.881C173.897 125.924 173.947 125.992 173.966 126.072C175.981 134.444 174.038 142.66 174.02 142.738C174.002 142.804 173.962 142.862 173.906 142.903C173.851 142.943 173.783 142.963 173.715 142.959Z" fill="white"/>
<path opacity="0.3" d="M172.043 121.718C171.986 121.718 171.93 121.701 171.881 121.67C171.833 121.64 171.794 121.596 171.768 121.545C171.025 119.902 170.072 118.362 168.934 116.964C168.884 116.903 168.861 116.825 168.869 116.746C168.877 116.668 168.915 116.596 168.976 116.546C169.006 116.52 169.041 116.501 169.079 116.489C169.117 116.478 169.157 116.474 169.197 116.478C169.236 116.481 169.275 116.493 169.31 116.512C169.345 116.531 169.375 116.557 169.4 116.587C170.567 118.026 171.546 119.608 172.313 121.294C172.33 121.329 172.339 121.367 172.341 121.406C172.343 121.445 172.337 121.485 172.324 121.521C172.311 121.558 172.29 121.592 172.263 121.621C172.237 121.649 172.205 121.672 172.169 121.688C172.13 121.707 172.087 121.717 172.043 121.718Z" fill="white"/>
<path d="M76.9803 206.132H76.759C75.966 206.11 75.2143 205.774 74.6693 205.197C74.1243 204.621 73.8305 203.851 73.8527 203.058C73.8749 202.265 74.2113 201.514 74.7877 200.969C75.3641 200.424 76.1335 200.13 76.9265 200.152H76.9803C78.7085 200.152 82.8646 198.053 91.5595 184.347C91.7903 183.983 92.0971 183.673 92.4588 183.439C92.8206 183.204 93.2287 183.051 93.6552 182.989C94.0818 182.927 94.5167 182.958 94.9301 183.08C95.3435 183.202 95.7257 183.412 96.0505 183.695C102.879 189.565 110.326 194.674 118.26 198.932C118.627 199.099 118.957 199.339 119.229 199.636C119.501 199.934 119.71 200.284 119.844 200.664C119.977 201.045 120.032 201.449 120.006 201.851C119.979 202.254 119.871 202.647 119.689 203.007C119.506 203.366 119.253 203.685 118.944 203.945C118.635 204.204 118.277 204.398 117.891 204.515C117.505 204.632 117.099 204.67 116.698 204.626C116.297 204.582 115.909 204.458 115.557 204.26C108.183 200.342 101.213 195.707 94.7469 190.423C87.4572 201.396 82.0513 206.132 76.9803 206.132Z" fill="#8F3535"/>
<path d="M95.4808 183.157H95.2236C94.7537 183.089 94.33 182.837 94.0452 182.457C93.7605 182.077 93.6381 181.6 93.7047 181.13C94.1293 178.14 93.603 166.999 89.8297 158.328C89.6623 157.945 89.634 157.515 89.7498 157.114C89.8655 156.712 90.118 156.363 90.4635 156.128C98.6561 150.548 116.106 149.878 116.847 149.855C117.083 149.847 117.318 149.885 117.538 149.968C117.759 150.051 117.961 150.177 118.133 150.338C118.306 150.499 118.444 150.692 118.542 150.907C118.639 151.121 118.693 151.353 118.701 151.589C118.709 151.824 118.67 152.059 118.587 152.28C118.505 152.5 118.379 152.703 118.218 152.875C118.057 153.047 117.864 153.186 117.649 153.283C117.434 153.38 117.202 153.435 116.967 153.443C116.805 153.443 101.55 154.041 93.7167 158.346C97.0535 166.981 97.813 177.739 97.2568 181.632C97.1924 182.057 96.9777 182.444 96.6518 182.724C96.3258 183.004 95.9103 183.158 95.4808 183.157Z" fill="#8F3535"/>
<path d="M98.4936 180.837C97.2976 178.02 91.9156 178.337 88.7642 180.753C87.0778 182.039 84.7935 185.92 84.5782 187.331C84.5064 187.666 84.5171 188.014 84.6095 188.344C84.7018 188.674 84.873 188.977 85.1083 189.227C85.3437 189.476 85.6361 189.665 85.9604 189.776C86.2847 189.888 86.6312 189.919 86.9702 189.866C89.0333 189.687 91.8618 186.691 91.8618 186.691C89.9781 188.539 92.412 189.842 96.0478 187.169C98.0332 185.68 99.8272 183.988 98.4936 180.837Z" fill="#EE5858"/>
<path d="M201.347 144.084C201.32 144.09 201.291 144.09 201.264 144.084C201.226 144.073 201.19 144.056 201.159 144.031C201.128 144.007 201.102 143.976 201.083 143.942C201.064 143.907 201.052 143.869 201.048 143.83C201.044 143.79 201.049 143.751 201.06 143.713C201.856 140.938 202.723 139.246 203.865 138.331C203.686 137.688 203.72 137.004 203.961 136.381C204.239 135.655 204.731 135.029 205.372 134.587C205.198 134.399 205.074 134.17 205.012 133.921C204.951 133.672 204.953 133.412 205.019 133.164C205.236 132.415 205.684 131.754 206.299 131.275C206.077 131.026 205.955 130.704 205.958 130.372C205.958 128.578 209.253 125.875 212.99 125.36C213.07 125.349 213.15 125.37 213.214 125.418C213.278 125.467 213.32 125.538 213.331 125.617C213.342 125.697 213.322 125.777 213.273 125.841C213.225 125.905 213.153 125.947 213.074 125.958C209.522 126.443 206.544 129.014 206.556 130.372C206.555 130.574 206.632 130.769 206.771 130.916C207.576 130.37 208.481 129.99 209.433 129.798C210.386 129.606 211.368 129.606 212.321 129.797C214.157 130.15 214.904 130.539 214.82 131.095C214.653 132.142 210.748 132.363 208.129 132.052C207.66 132.009 207.203 131.877 206.783 131.663C206.219 132.065 205.8 132.637 205.587 133.296C205.536 133.47 205.536 133.656 205.588 133.83C205.64 134.004 205.742 134.159 205.88 134.277C206.993 133.679 208.553 133.463 210.616 133.918C213.325 134.516 213.427 134.845 213.493 135.042C213.514 135.112 213.516 135.186 213.498 135.256C213.48 135.327 213.443 135.391 213.391 135.443C212.823 136.041 208.667 135.76 206.58 135.245C206.328 135.188 206.085 135.097 205.856 134.976C205.239 135.352 204.763 135.922 204.505 136.597C204.332 137.034 204.285 137.51 204.367 137.972C204.474 137.908 204.584 137.851 204.696 137.799C205.934 137.201 207.429 137.308 209.277 138.098C210.473 138.618 211.071 139.084 211.131 139.557C211.133 139.678 211.103 139.798 211.043 139.903C210.983 140.008 210.895 140.095 210.79 140.155C209.875 140.753 206.682 140.669 205.019 139.784C204.637 139.576 204.318 139.268 204.098 138.893C203.123 139.79 202.334 141.387 201.616 143.892C201.595 143.947 201.558 143.994 201.51 144.028C201.462 144.062 201.406 144.081 201.347 144.084ZM204.589 138.504C204.755 138.814 205.009 139.067 205.318 139.234C206.67 139.952 209.325 140.113 210.317 139.712C210.521 139.629 210.551 139.563 210.551 139.563C210.551 139.563 210.521 139.228 209.056 138.6C207.381 137.882 206.066 137.781 204.971 138.289C204.839 138.353 204.711 138.425 204.589 138.504ZM206.586 134.576L206.735 134.617C208.683 135.066 210.687 135.217 212.679 135.066C211.973 134.804 211.244 134.604 210.503 134.468C209.215 134.119 207.853 134.156 206.586 134.576ZM207.339 131.215C207.615 131.314 207.903 131.378 208.194 131.406C211.184 131.759 213.81 131.346 214.174 130.97C214.073 130.88 213.672 130.623 212.189 130.342C210.52 130.009 208.787 130.321 207.339 131.215Z" fill="#8F3535"/>
<path d="M123.503 205.134C123.898 205.008 123.766 204.625 123.324 204.625H115.227C99.8105 202.993 89.0405 205.182 95.8278 205.696C102.615 206.21 95.3494 206.102 90.392 207.98C85.4346 209.858 127.259 210.33 131.056 207.98C134.548 205.815 118.038 206.886 123.503 205.134Z" fill="#8F3535"/>
<path d="M181.47 207.52L111.026 205.181L108.102 136.878L191.289 138.738L181.47 207.52Z" fill="#EE5858"/>
<path d="M133.023 206.21C132.948 206.21 132.875 206.182 132.819 206.131C132.764 206.08 132.73 206.01 132.724 205.935L127.079 137.332C127.074 137.253 127.1 137.175 127.151 137.115C127.202 137.055 127.275 137.017 127.354 137.009C127.432 137.006 127.51 137.032 127.569 137.083C127.629 137.134 127.668 137.206 127.677 137.284L133.352 205.887C133.355 205.926 133.35 205.966 133.338 206.003C133.326 206.041 133.307 206.075 133.281 206.105C133.256 206.135 133.225 206.16 133.189 206.178C133.154 206.196 133.116 206.207 133.077 206.21H133.023Z" fill="#8F3535"/>
<path d="M181.477 207.519L200.409 204.637L206.371 141.123L191.296 138.737L181.477 207.519Z" fill="#EE5858"/>
<path opacity="0.2" d="M181.477 207.519L200.409 204.637L206.371 141.123L191.296 138.737L181.477 207.519Z" fill="#191C1F"/>
<path d="M117.046 192.019L115.311 151.433C115.269 150.43 115.432 149.43 115.791 148.493C116.151 147.556 116.698 146.702 117.401 145.985C118.103 145.268 118.945 144.703 119.874 144.325C120.804 143.946 121.801 143.762 122.804 143.785L175.464 144.981C176.501 145.004 177.521 145.247 178.457 145.693C179.394 146.14 180.224 146.78 180.895 147.571C181.566 148.362 182.061 149.286 182.349 150.283C182.636 151.28 182.709 152.326 182.562 153.353L176.726 194.22C176.473 196.01 175.569 197.643 174.186 198.808C172.804 199.972 171.04 200.585 169.233 200.529L124.15 199.034C122.299 198.977 120.538 198.222 119.221 196.921C117.903 195.62 117.126 193.869 117.046 192.019Z" fill="#8F3535"/>
<path d="M122.739 156.241L130.884 156.498L130.818 158.597L125.717 158.436L125.669 160.003L130.399 160.152L130.333 162.161L125.603 162.006L125.543 163.949L130.788 164.117L130.716 166.341L122.422 166.078L122.739 156.241Z" fill="white"/>
<path d="M132.398 166.395L132.709 156.558L137.78 156.72C138.508 156.716 139.231 156.821 139.927 157.031C140.421 157.196 140.843 157.525 141.123 157.963C141.331 158.283 141.471 158.641 141.534 159.017C141.597 159.393 141.582 159.778 141.49 160.147C141.398 160.517 141.231 160.864 140.999 161.166C140.767 161.468 140.476 161.72 140.143 161.904C139.803 162.079 139.437 162.2 139.06 162.263C139.338 162.353 139.602 162.481 139.844 162.646C140.018 162.808 140.174 162.988 140.31 163.184C140.464 163.37 140.6 163.57 140.717 163.782L142.098 166.682L138.665 166.569L137.135 163.513C137.013 163.221 136.834 162.957 136.608 162.735C136.394 162.58 136.138 162.493 135.873 162.484H135.604L135.478 166.473L132.398 166.395ZM135.64 160.642L136.919 160.684C137.191 160.668 137.461 160.63 137.727 160.571C137.927 160.54 138.108 160.436 138.235 160.278C138.364 160.118 138.438 159.921 138.444 159.716C138.456 159.579 138.436 159.441 138.388 159.313C138.339 159.185 138.262 159.069 138.163 158.974C137.829 158.758 137.435 158.656 137.039 158.681L135.699 158.639L135.64 160.642Z" fill="white"/>
<path d="M143.086 166.712L143.397 156.875L148.462 157.036C149.189 157.032 149.913 157.137 150.609 157.347C151.103 157.511 151.526 157.841 151.805 158.28C152.108 158.759 152.251 159.323 152.211 159.889C152.213 160.366 152.086 160.835 151.842 161.246C151.599 161.656 151.249 161.993 150.83 162.221C150.49 162.395 150.125 162.516 149.748 162.58C150.024 162.669 150.286 162.798 150.525 162.963C150.704 163.12 150.862 163.299 150.997 163.495C151.15 163.682 151.286 163.882 151.404 164.093L152.785 166.987L149.353 166.88L147.822 163.824C147.7 163.532 147.521 163.268 147.296 163.046C147.082 162.885 146.822 162.797 146.554 162.795H146.291L146.16 166.79L143.086 166.712ZM146.321 160.959L147.607 160.995C147.879 160.985 148.149 160.949 148.414 160.888C148.613 160.858 148.793 160.753 148.916 160.595C149.05 160.438 149.125 160.239 149.126 160.032C149.139 159.896 149.121 159.759 149.073 159.63C149.025 159.502 148.949 159.386 148.851 159.291C148.517 159.07 148.119 158.967 147.72 158.998L146.387 158.956L146.321 160.959Z" fill="white"/>
<path d="M153.275 162.143C153.229 161.457 153.336 160.769 153.587 160.128C153.839 159.488 154.229 158.911 154.73 158.44C155.23 157.968 155.83 157.613 156.484 157.4C157.138 157.188 157.831 157.123 158.514 157.21C159.203 157.187 159.889 157.303 160.532 157.551C161.175 157.798 161.762 158.172 162.257 158.651C162.7 159.16 163.034 159.754 163.239 160.397C163.445 161.039 163.518 161.717 163.453 162.389C163.458 163.366 163.229 164.329 162.784 165.199C162.38 165.911 161.778 166.489 161.049 166.862C160.191 167.272 159.242 167.453 158.293 167.388C157.347 167.396 156.411 167.192 155.554 166.79C154.824 166.394 154.229 165.791 153.844 165.056C153.391 164.155 153.195 163.148 153.275 162.143ZM156.313 162.251C156.224 163.005 156.395 163.767 156.798 164.41C156.986 164.62 157.215 164.791 157.471 164.911C157.727 165.031 158.004 165.098 158.287 165.109C158.569 165.119 158.85 165.073 159.115 164.972C159.379 164.872 159.62 164.719 159.824 164.523C160.267 163.852 160.477 163.054 160.422 162.251C160.502 161.53 160.326 160.804 159.925 160.2C159.744 159.991 159.52 159.824 159.268 159.709C159.016 159.594 158.743 159.536 158.466 159.536C158.187 159.516 157.907 159.559 157.647 159.663C157.387 159.767 157.154 159.928 156.965 160.134C156.512 160.745 156.282 161.492 156.313 162.251Z" fill="white"/>
<path d="M164.992 167.435L165.303 157.592L170.368 157.754C171.095 157.753 171.818 157.857 172.515 158.065C173.007 158.232 173.428 158.561 173.711 158.998C174.013 159.477 174.155 160.041 174.118 160.606C174.12 161.084 173.994 161.555 173.75 161.966C173.507 162.378 173.157 162.716 172.736 162.944C172.394 163.114 172.03 163.232 171.654 163.297C171.931 163.388 172.192 163.519 172.431 163.686C172.61 163.843 172.769 164.022 172.904 164.218C173.058 164.404 173.194 164.604 173.31 164.816L174.692 167.716L171.259 167.609L169.728 164.547C169.607 164.257 169.428 163.995 169.202 163.776C168.988 163.615 168.728 163.525 168.461 163.518H168.197L168.066 167.513L164.992 167.435ZM168.227 161.677L169.513 161.718C169.785 161.708 170.055 161.672 170.32 161.611C170.518 161.579 170.697 161.475 170.823 161.318C170.964 161.151 171.038 160.938 171.032 160.72C171.045 160.584 171.027 160.448 170.979 160.32C170.932 160.193 170.856 160.078 170.757 159.984C170.423 159.763 170.026 159.66 169.627 159.691L168.293 159.649L168.227 161.677Z" fill="white"/>
<path d="M169.834 184.15C169.722 184.152 169.611 184.13 169.508 184.086C169.405 184.041 169.312 183.975 169.236 183.892L164.118 178.289L158.592 183.336C158.439 183.477 158.236 183.55 158.029 183.541C157.822 183.532 157.626 183.441 157.486 183.288L152.367 177.685L146.841 182.732C146.688 182.873 146.486 182.946 146.278 182.937C146.071 182.928 145.875 182.837 145.735 182.684L140.61 177.081L135.091 182.128C135.01 182.201 134.916 182.257 134.813 182.292C134.71 182.327 134.601 182.34 134.493 182.332C134.285 182.319 134.09 182.227 133.948 182.075L128.83 176.477L123.31 181.518C123.156 181.659 122.952 181.733 122.744 181.724C122.536 181.715 122.339 181.624 122.198 181.471C122.128 181.395 122.074 181.306 122.039 181.209C122.004 181.112 121.988 181.009 121.993 180.906C121.998 180.803 122.024 180.702 122.068 180.609C122.112 180.516 122.175 180.433 122.252 180.364L128.351 174.785C128.505 174.644 128.709 174.57 128.917 174.579C129.126 174.588 129.322 174.679 129.463 174.833L134.582 180.436L140.102 175.389C140.258 175.251 140.462 175.179 140.67 175.186C140.878 175.197 141.073 175.289 141.214 175.443L146.333 181.046L151.859 175.999C151.934 175.929 152.023 175.874 152.119 175.839C152.216 175.803 152.319 175.787 152.422 175.791C152.525 175.796 152.626 175.821 152.719 175.864C152.812 175.908 152.896 175.97 152.965 176.047L158.084 181.65L163.609 176.603C163.762 176.463 163.965 176.389 164.172 176.398C164.38 176.407 164.575 176.498 164.716 176.651L170.432 182.858C170.535 182.972 170.601 183.114 170.624 183.265C170.648 183.416 170.626 183.571 170.563 183.711C170.499 183.85 170.397 183.968 170.267 184.05C170.138 184.133 169.988 184.175 169.834 184.174V184.15Z" fill="white"/>
<path d="M75.1975 208.973L71.454 207.185L68.1172 190.937L69.9291 188.946L75.1975 208.973Z" fill="#EE5858"/>
<path d="M75.1981 208.973L80.1674 206.067L75.9097 192.683L69.9297 188.946L75.1981 208.973Z" fill="#EE5858"/>
<path opacity="0.2" d="M75.1981 208.973L80.1674 206.067L75.9097 192.683L69.9297 188.946L75.1981 208.973Z" fill="#191C1F"/>
<path d="M156.675 211.927H156.262C155.469 211.905 154.717 211.57 154.171 210.994C153.626 210.418 153.331 209.649 153.353 208.856C153.374 208.063 153.71 207.311 154.285 206.765C154.861 206.22 155.63 205.925 156.423 205.947C161.028 206.096 170.775 203.268 176.349 197.862C176.685 197.532 177.095 197.286 177.545 197.144C186.987 194.31 190.497 200.032 190.641 200.278L185.498 203.321C185.516 203.36 185.538 203.396 185.564 203.429C185.51 203.351 184.171 201.635 179.913 202.688C172.922 209.062 162.194 211.927 156.675 211.927Z" fill="#8F3535"/>
<path d="M156.307 215.897L145.418 215.216L144.562 195.135L159.196 195.679L156.307 215.897Z" fill="#EE5858"/>
<path d="M156.312 215.898L158.86 213.362L160.439 200.846L159.201 195.679L156.312 215.898Z" fill="#EE5858"/>
<path opacity="0.2" d="M156.312 215.898L158.86 213.362L160.439 200.846L159.201 195.679L156.312 215.898Z" fill="#191C1F"/>
<path d="M219.415 208.297C219.024 208.296 218.644 208.168 218.333 207.932C212.114 203.208 203.712 194.818 200.488 186.727C200.44 186.61 200.406 186.487 200.387 186.362C198.814 177.009 197.313 157.329 197.247 156.498C197.23 156.262 197.258 156.026 197.332 155.801C197.406 155.577 197.523 155.369 197.678 155.19C197.989 154.828 198.431 154.605 198.907 154.569C199.382 154.534 199.853 154.689 200.215 155C200.576 155.311 200.8 155.753 200.835 156.229C200.835 156.426 202.372 176.298 203.903 185.573C207.12 193.442 215.863 201.521 220.515 205.074C220.815 205.301 221.036 205.617 221.146 205.976C221.256 206.335 221.251 206.72 221.131 207.077C221.01 207.433 220.781 207.742 220.476 207.961C220.17 208.18 219.803 208.298 219.427 208.297H219.415Z" fill="#8F3535"/>
<path d="M227.707 209.2C226.32 209.2 224.747 208.572 223.031 207.334C222.645 207.055 222.387 206.634 222.312 206.164C222.236 205.695 222.351 205.214 222.63 204.829C222.909 204.443 223.33 204.185 223.8 204.109C224.27 204.034 224.75 204.149 225.136 204.428C226.619 205.498 227.426 205.624 227.707 205.624C228.183 205.624 228.639 205.813 228.976 206.149C229.312 206.486 229.501 206.942 229.501 207.418C229.501 207.894 229.312 208.35 228.976 208.687C228.639 209.023 228.183 209.212 227.707 209.212V209.2Z" fill="#8F3535"/>
<path d="M223.529 207.28C225.449 201.581 233.319 202.705 236.033 203.554C238.353 204.228 240.577 205.192 242.653 206.425C244.118 207.382 244.142 208.99 242.187 209.905C239.795 211.03 233.719 210.031 233.719 210.031C236.853 211.4 233.719 213.619 228.212 211.442C226.424 210.736 222.854 209.373 223.529 207.28Z" fill="#EE5858"/>
<path d="M204.431 158.938C203.72 163.782 199.707 167.352 196.442 166.874C193.177 166.395 193.046 162.09 193.757 157.222C194.469 152.354 195.761 148.85 199.026 149.328C202.291 149.807 205.143 154.112 204.431 158.938Z" fill="#8F3535"/>
<path d="M125.506 139.622C125.777 139.622 125.996 139.403 125.996 139.132C125.996 138.861 125.777 138.642 125.506 138.642C125.235 138.642 125.016 138.861 125.016 139.132C125.016 139.403 125.235 139.622 125.506 139.622Z" fill="#8F3535"/>
<path d="M130.489 142.66C130.489 142.757 130.46 142.852 130.406 142.933C130.352 143.013 130.275 143.076 130.186 143.113C130.096 143.15 129.998 143.16 129.903 143.141C129.807 143.122 129.72 143.076 129.651 143.007C129.583 142.938 129.536 142.851 129.517 142.756C129.498 142.661 129.508 142.562 129.545 142.473C129.582 142.383 129.645 142.306 129.726 142.253C129.806 142.199 129.901 142.17 129.998 142.17C130.128 142.17 130.253 142.222 130.345 142.314C130.437 142.406 130.489 142.53 130.489 142.66Z" fill="#8F3535"/>
<path d="M131.035 200.607C131.035 200.704 131.007 200.798 130.953 200.879C130.899 200.96 130.822 201.023 130.733 201.06C130.643 201.097 130.545 201.106 130.449 201.088C130.354 201.069 130.267 201.022 130.198 200.953C130.13 200.885 130.083 200.797 130.064 200.702C130.045 200.607 130.055 200.509 130.092 200.419C130.129 200.329 130.192 200.253 130.273 200.199C130.353 200.145 130.448 200.116 130.545 200.116C130.675 200.116 130.8 200.168 130.892 200.26C130.984 200.352 131.035 200.477 131.035 200.607Z" fill="#8F3535"/>
<path d="M135.528 204.141C135.528 204.238 135.499 204.333 135.445 204.413C135.391 204.494 135.314 204.557 135.225 204.594C135.135 204.631 135.037 204.641 134.942 204.622C134.846 204.603 134.759 204.556 134.69 204.487C134.622 204.419 134.575 204.332 134.556 204.236C134.537 204.141 134.547 204.043 134.584 203.953C134.621 203.864 134.684 203.787 134.765 203.733C134.845 203.679 134.94 203.65 135.037 203.65C135.167 203.65 135.292 203.702 135.384 203.794C135.476 203.886 135.528 204.011 135.528 204.141Z" fill="#8F3535"/>
<path d="M49.3445 210.019C48.4836 209.979 47.6427 209.746 46.884 209.337C46.1253 208.928 45.4682 208.354 44.9611 207.657C44.9363 207.625 44.9182 207.588 44.908 207.549C44.8978 207.509 44.8957 207.469 44.9019 207.428C44.908 207.388 44.9223 207.35 44.9437 207.315C44.9652 207.281 44.9935 207.251 45.0268 207.228C45.0601 207.205 45.0978 207.189 45.1375 207.181C45.1773 207.173 45.2183 207.173 45.258 207.181C45.2977 207.189 45.3354 207.205 45.3686 207.229C45.4019 207.252 45.4301 207.282 45.4515 207.316C46.5697 208.931 49.0395 209.786 50.1159 209.277C50.2237 209.232 50.3198 209.162 50.3969 209.074C49.8531 208.835 49.3765 208.465 49.0094 207.998C48.6422 207.531 48.3959 206.98 48.292 206.395C48.1544 205.636 48.0468 204.601 48.6687 204.47C49.5298 204.278 50.6541 206.353 51.0607 207.926C51.1344 208.186 51.1607 208.458 51.1385 208.727C51.4834 208.83 51.8462 208.859 52.2029 208.811C52.3637 208.799 52.5201 208.753 52.6622 208.677C52.8042 208.6 52.9289 208.496 53.0281 208.368C52.6346 208.071 52.3081 207.695 52.0701 207.263C51.8321 206.831 51.6878 206.354 51.6468 205.863C51.4195 204.224 51.5929 203.943 51.7723 203.8C51.8305 203.755 51.8998 203.728 51.9727 203.72C52.0456 203.713 52.1191 203.726 52.185 203.758C52.8248 204.027 53.5962 206.347 53.7457 207.663C53.7637 207.8 53.7637 207.938 53.7457 208.075C54.0036 208.175 54.2769 208.227 54.553 208.231C55.0601 208.251 55.5617 208.12 55.9942 207.854C55.9105 207.8 55.8328 207.741 55.755 207.681C55.157 207.149 54.8819 206.299 54.9896 205.091C55.0733 204.153 55.2826 203.638 55.6593 203.477C55.7809 203.428 55.914 203.416 56.0424 203.441C56.1709 203.467 56.2892 203.529 56.3829 203.62C56.7866 204.066 57.0883 204.594 57.2669 205.169C57.4456 205.743 57.497 206.349 57.4175 206.945C57.3656 207.193 57.2616 207.428 57.1125 207.633C58.2128 207.824 59.7556 207.513 61.0892 207.184C61.1285 207.175 61.1692 207.173 61.2091 207.18C61.249 207.186 61.2872 207.2 61.3216 207.221C61.3561 207.242 61.386 207.27 61.4097 207.303C61.4335 207.335 61.4505 207.372 61.4599 207.412C61.4694 207.451 61.471 207.492 61.4646 207.532C61.4583 207.571 61.4442 207.61 61.4231 207.644C61.402 207.679 61.3743 207.708 61.3417 207.732C61.309 207.756 61.272 207.773 61.2327 207.782C59.6121 208.183 57.866 208.512 56.6341 208.153C56.0328 208.61 55.2964 208.854 54.5411 208.847C54.2059 208.842 53.874 208.78 53.5604 208.661C53.4212 208.877 53.2346 209.057 53.0148 209.189C52.795 209.32 52.5479 209.4 52.2926 209.421C51.8431 209.479 51.3864 209.44 50.9531 209.307C50.8136 209.542 50.6046 209.728 50.3551 209.84C50.0343 209.969 49.6901 210.03 49.3445 210.019ZM48.8302 205.068C48.7475 205.474 48.7639 205.895 48.878 206.293C48.9624 206.772 49.1608 207.222 49.4564 207.608C49.7521 207.993 50.1362 208.301 50.5763 208.506C50.568 208.364 50.5439 208.224 50.5046 208.087C50.0381 206.377 49.1411 205.199 48.8302 205.068ZM52.161 204.547C52.1649 204.96 52.1989 205.372 52.2627 205.779C52.3286 206.508 52.6507 207.19 53.1717 207.705C53.0245 206.601 52.6823 205.532 52.161 204.547ZM55.9225 204.027C55.9225 204.027 55.6952 204.141 55.6115 205.139C55.5278 206.138 55.7012 206.826 56.1676 207.226C56.278 207.316 56.3984 207.392 56.5264 207.454C56.6837 207.285 56.7949 207.079 56.8494 206.856C56.9559 205.914 56.7016 204.968 56.1377 204.206C56.0122 204.051 55.9404 204.027 55.9225 204.027Z" fill="#8F3535"/>
<path d="M136.867 214.54L138.488 211.729L136.867 208.918H135.133L136.114 211.729L135.133 214.54H136.867Z" fill="#8F3535"/>
<path d="M135.244 213.194C135.044 213.207 134.844 213.179 134.655 213.111C134.467 213.043 134.294 212.938 134.148 212.801C134.002 212.664 133.886 212.498 133.806 212.314C133.727 212.13 133.685 211.932 133.685 211.732C133.685 211.532 133.727 211.334 133.806 211.15C133.886 210.966 134.002 210.8 134.148 210.663C134.294 210.526 134.467 210.421 134.655 210.353C134.844 210.285 135.044 210.257 135.244 210.27L132.493 209.72L131.758 211.944L132.99 213.822L135.244 213.194Z" fill="#8F3535"/>
<path d="M135.485 208.918H132.238L130.617 211.729L132.238 214.54H135.485L137.105 211.729L135.485 208.918ZM133.864 213.194C133.574 213.195 133.29 213.11 133.049 212.95C132.807 212.79 132.618 212.561 132.506 212.294C132.395 212.026 132.365 211.732 132.421 211.447C132.477 211.162 132.616 210.901 132.82 210.695C133.025 210.49 133.286 210.35 133.57 210.293C133.855 210.236 134.15 210.264 134.418 210.375C134.686 210.486 134.915 210.673 135.076 210.914C135.237 211.156 135.323 211.439 135.323 211.729C135.323 212.117 135.17 212.488 134.896 212.763C134.623 213.038 134.252 213.193 133.864 213.194Z" fill="#EE5858"/>
<path d="M249.905 208.727L248.703 206.64L249.905 204.553H251.191L250.467 206.64L251.191 208.727H249.905Z" fill="#EE5858"/>
<path d="M251.102 207.729C251.251 207.74 251.401 207.72 251.542 207.67C251.683 207.621 251.813 207.543 251.923 207.441C252.032 207.339 252.12 207.216 252.18 207.078C252.24 206.941 252.271 206.793 252.271 206.643C252.271 206.494 252.24 206.346 252.18 206.208C252.12 206.071 252.032 205.948 251.923 205.846C251.813 205.744 251.683 205.666 251.542 205.616C251.401 205.567 251.251 205.547 251.102 205.558L253.147 205.151L253.691 206.802L252.782 208.195L251.102 207.729Z" fill="#EE5858"/>
<path d="M250.93 204.553H253.322L254.518 206.64L253.322 208.727H250.93L249.734 206.64L250.93 204.553ZM252.126 207.729C252.342 207.73 252.553 207.667 252.733 207.548C252.912 207.429 253.053 207.26 253.136 207.061C253.219 206.862 253.242 206.643 253.201 206.432C253.159 206.22 253.056 206.026 252.904 205.873C252.752 205.72 252.558 205.616 252.347 205.573C252.136 205.531 251.916 205.552 251.717 205.634C251.518 205.716 251.348 205.856 251.228 206.035C251.108 206.214 251.044 206.425 251.044 206.64C251.043 206.783 251.071 206.925 251.125 207.058C251.18 207.19 251.26 207.31 251.361 207.412C251.462 207.513 251.583 207.593 251.715 207.647C251.847 207.702 251.989 207.729 252.132 207.729H252.126Z" fill="#8F3535"/>
<path d="M205.116 211.502H207.819C208.157 211.5 208.481 211.365 208.72 211.125C208.958 210.885 209.092 210.56 209.092 210.222C209.092 209.884 208.958 209.559 208.72 209.319C208.481 209.079 208.157 208.944 207.819 208.942H205.116C204.776 208.942 204.451 209.077 204.211 209.317C203.971 209.557 203.836 209.883 203.836 210.222C203.836 210.562 203.971 210.887 204.211 211.127C204.451 211.367 204.776 211.502 205.116 211.502Z" fill="#8F3535"/>
<path d="M200.774 209.086C201.025 208.63 201.404 208.257 201.864 208.014C202.324 207.77 202.845 207.667 203.364 207.716C203.882 207.765 204.374 207.965 204.78 208.291C205.186 208.617 205.488 209.055 205.649 209.55C205.809 210.045 205.821 210.577 205.683 211.079C205.544 211.581 205.262 212.031 204.871 212.375C204.48 212.718 203.997 212.94 203.482 213.012C202.966 213.085 202.44 213.005 201.97 212.782C201.323 212.448 200.835 211.873 200.61 211.18C200.386 210.488 200.445 209.735 200.774 209.086Z" fill="#EE5858"/>
<path d="M201.501 212.781L202.242 213.13L204.818 207.667L204.077 207.318L201.501 212.781Z" fill="#8F3535"/>
</g>
<defs>
<clipPath id="clip0_158_1991">
<rect width="299" height="228" fill="white"/>
</clipPath>
</defs>
</svg>
