<svg width="277" height="348" viewBox="0 0 277 348" fill="none" xmlns="http://www.w3.org/2000/svg">
<mask id="mask0_1503_3751" style="mask-type:alpha" maskUnits="userSpaceOnUse" x="7" y="2" width="263" height="334">
<rect x="7" y="2" width="263" height="334" rx="10" fill="url(#paint0_linear_1503_3751)"/>
</mask>
<g mask="url(#mask0_1503_3751)">
<g opacity="0.3" clip-path="url(#clip0_1503_3751)">
<path d="M643.634 313.972C668.913 331.095 639.952 372.451 631.335 419.311C630.174 426.411 628.498 433.599 627.337 440.699C623.179 464.235 654.022 476.681 659.19 491.178C673.864 532.952 663.596 556.483 639.74 567.505C616.613 578.136 582.193 578.778 547.913 560.293C487.556 527.743 505.315 567.391 437.027 539.66C419.856 532.545 400.954 572.163 384.798 520.297C371.671 478.256 350.492 518.531 342.226 483.08C332.016 439.473 384.994 434.03 298.843 384.446C196.196 325.508 300.305 169.011 379.624 185.283C384.32 186.328 388.377 188.281 392.568 191.006C424.065 211.829 390.09 256.44 543.688 295.162C575.41 303.477 618.916 297.018 643.634 313.972Z" stroke="url(#paint1_linear_1503_3751)" stroke-width="0.5"/>
<path d="M661.669 307.67C688.976 325.769 659.305 370.697 648.387 421.14C646.755 428.585 644.954 436.591 643.367 444.295C638.233 469.858 672.047 482.587 677.953 498.281C694.933 544.168 683.912 571.013 658.126 583.165C633.069 594.925 595.376 595.072 557.814 574.501C491.406 537.69 511.426 581.193 436.368 551.182C417.516 543.562 396.793 588.005 378.927 530.863C364.526 484.531 341.01 529.722 332.164 490.921C321.24 443.192 380.373 438.012 284.987 384.187C171.592 319.943 289.772 149.604 373.967 167.952C378.922 168.953 383.584 171.332 387.819 174.314C421.567 197.401 381.815 246.991 551.353 288.795C586.561 297.303 634.362 289.573 661.669 307.67Z" stroke="url(#paint2_linear_1503_3751)" stroke-width="0.5"/>
<path d="M679.446 301.416C708.738 320.233 678.358 368.732 665.396 422.712C663.337 430.762 661.324 439.07 659.354 447.636C653.198 474.967 690.287 488.192 696.674 505.13C715.959 555.128 704.397 584.986 676.469 598.569C649.528 611.716 608.304 611.413 567.626 588.196C495.167 547.123 517.448 594.481 435.924 562.404C415.391 554.278 392.848 603.546 373.528 541.084C357.852 490.462 332.303 540.781 322.619 498.675C310.723 446.869 376.056 442.209 271.862 383.539C147.978 313.943 279.971 129.808 369.04 150.232C374.555 151.402 379.52 153.993 384.102 157.446C420.103 182.798 374.571 237.366 560.005 281.995C597.971 291.087 649.551 282.172 679.446 301.416Z" stroke="url(#paint3_linear_1503_3751)" stroke-width="0.5"/>
<path d="M697.48 295.114C728.8 314.907 697.666 366.721 682.661 424.237C680.433 432.848 677.993 441.76 675.855 450.886C668.677 479.987 708.781 493.75 716.164 511.843C737.757 565.953 725.441 599.126 695.628 614.096C666.801 628.629 622.304 627.83 578.298 602.271C499.789 556.937 524.59 608.104 436.037 573.793C413.824 565.163 389.46 619.255 368.687 551.472C351.737 496.559 323.852 551.792 313.587 506.337C300.719 450.455 372.207 446.058 259.294 383.056C124.663 308.155 270.727 110.179 364.671 132.679C370.489 134.061 375.756 136.866 380.899 140.488C419.151 168.103 368.099 227.606 569.216 275.362C609.165 285.172 664.996 274.726 697.48 295.114Z" stroke="url(#paint4_linear_1503_3751)" stroke-width="0.5"/>
<path d="M715.252 288.859C748.6 309.628 716.925 364.454 699.708 426.067C697.054 435.282 694.445 444.755 691.88 454.484C683.681 485.353 727.013 499.355 734.922 518.949C758.82 577.171 745.706 613.4 714.007 629.758C683.04 645.724 635.482 644.126 588.192 616.48C503.633 566.886 530.74 622.166 435.676 585.53C411.781 576.394 385.551 635.055 363.37 562.208C345.404 502.961 315.182 563.108 304.08 514.349C290.498 454.344 368.141 450.211 245.994 382.968C100.872 302.716 260.75 90.9427 359.569 115.519C365.69 117.114 371.517 120.087 376.705 123.966C417.209 153.846 360.379 218.327 577.435 269.165C620.31 279.001 680.436 267.282 715.252 288.859Z" stroke="url(#paint5_linear_1503_3751)" stroke-width="0.5"/>
<path d="M733.29 282.556C768.622 304.044 736.238 362.442 716.719 427.637C713.897 437.412 710.861 447.489 707.826 457.565C698.604 490.203 744.952 504.744 753.858 525.493C780.062 587.827 766.451 627.326 732.611 645.115C699.713 662.21 648.926 660.375 598.266 630.128C507.656 576.273 537.282 635.363 435.19 596.493C409.87 586.807 381.564 650.338 357.929 572.17C338.688 508.632 306.175 573.951 294.492 521.843C279.939 457.76 363.781 454.148 232.87 382.318C77.0024 296.758 250.693 71.1882 354.645 97.7959C361.326 99.5607 367.456 102.746 372.946 106.838C415.701 138.982 353.093 208.442 586.347 262.317C631.722 272.782 695.93 260.092 733.29 282.556Z" stroke="url(#paint6_linear_1503_3751)" stroke-width="0.5"/>
<path d="M751.063 276.3C788.681 298.72 755.285 360.477 733.768 429.466C730.519 439.845 727.056 450.527 723.852 461.163C713.609 495.569 763.229 510.607 772.617 532.598C801.082 598.787 786.762 641.857 750.735 660.821C715.953 679.304 661.635 677.018 607.904 644.382C511.243 586.266 543.131 649.21 434.571 608.275C407.571 598.083 377.443 666.438 352.099 582.995C331.583 515.167 296.992 585.355 284.471 529.943C268.946 461.784 358.943 458.434 219.01 382.06C52.3948 291.194 240.157 51.7839 348.939 80.21C355.923 82.1862 362.356 85.5851 368.451 90.1042C413.2 124.557 345.116 199.207 594.221 255.651C642.914 266.869 711.372 252.648 751.063 276.3Z" stroke="url(#paint7_linear_1503_3751)" stroke-width="0.5"/>
<path d="M769.146 270.258C808.748 293.395 774.643 358.724 751.081 431.252C747.406 442.235 743.775 453.475 740.402 464.672C729.137 500.847 781.729 516.167 792.158 539.571C822.929 609.871 808.068 655.954 769.942 676.607C733.231 696.218 675.64 693.436 618.626 658.715C516.128 596.037 550.064 663.137 434.734 619.923C406.053 609.225 374.061 682.149 347.307 593.642C325.517 521.524 288.635 596.885 275.489 537.865C258.991 465.628 355.401 462.496 206.492 381.838C29.3877 285.621 230.962 32.413 344.621 62.9155C352.119 64.8027 358.899 68.6722 365.039 73.4483C412.04 110.166 338.178 189.796 603.223 249.32C654.069 260.697 726.822 245.204 769.146 270.258Z" stroke="url(#paint8_linear_1503_3751)" stroke-width="0.5"/>
<path d="M786.92 264.001C828.551 288.115 793.692 356.758 768.087 432.822C764.242 444.366 760.184 456.211 756.386 468.012C744.143 506.213 799.963 521.771 810.873 546.418C843.951 620.831 828.291 669.969 788.281 692.009C749.427 713.053 688.821 709.731 628.176 672.454C519.627 605.514 556.082 676.424 433.983 630.931C403.576 619.47 370.066 697.432 341.601 603.649C318.537 527.24 279.576 607.471 265.637 545.406C248.425 469.046 350.777 466.479 193.105 381.232C5.25296 279.709 220.899 12.6606 339.432 45.2385C347.234 47.3392 354.528 51.1196 361.016 56.3662C410.268 95.3473 330.887 179.911 611.613 242.562C665.475 254.48 742.007 237.802 786.92 264.001Z" stroke="url(#paint9_linear_1503_3751)" stroke-width="0.5"/>
<path d="M804.953 257.7C848.612 282.79 812.998 354.747 785.137 434.651C780.867 446.798 776.596 458.946 772.369 471.351C759.106 511.32 817.942 527.419 829.59 553.264C864.974 631.789 848.818 684.198 806.621 707.412C765.882 729.843 701.958 725.768 638.03 686.404C523.431 615.204 562.147 689.968 433.323 642.453C401.235 630.488 365.904 713.275 335.987 614.171C311.648 533.472 270.351 618.617 255.574 553.246C237.39 472.811 345.897 470.506 179.247 380.974C-19.094 274.1 210.365 -6.74592 333.773 27.9083C341.877 30.2225 349.475 34.2155 356.567 39.8881C408.072 81.1339 322.955 170.934 619.579 236.41C676.668 248.565 757.451 230.357 804.953 257.7Z" stroke="url(#paint10_linear_1503_3751)" stroke-width="0.5"/>
<path d="M822.725 251.442C868.367 277.251 832.046 352.78 802.141 436.221C797.701 448.928 793.004 461.68 788.609 474.644C774.323 516.383 836.432 532.977 848.82 560.022C886.51 642.658 869.6 698.382 825.518 722.983C782.894 746.8 715.439 742.275 648.397 700.265C527.747 624.804 568.724 703.423 433.389 653.584C399.619 641.113 362.468 728.725 331.098 624.301C305.485 539.311 262.153 629.584 246.494 560.651C227.338 476.138 342.303 474.31 166.586 379.976C-42.5017 267.796 200.769 -26.8463 329.312 9.83894C337.976 12.3211 345.876 16.5286 353.013 22.4582C406.769 65.9676 315.875 160.746 628.394 229.047C688.072 242.346 772.936 223.167 822.725 251.442Z" stroke="url(#paint11_linear_1503_3751)" stroke-width="0.5"/>
<path d="M840.762 245.142C888.433 271.927 851.614 350.726 819.408 437.748C814.542 451.06 809.418 464.416 804.854 477.941C789.548 521.447 854.627 538.323 867.799 566.825C907.795 653.574 890.086 712.354 844.12 738.342C799.566 763.289 728.881 758.525 658.512 714.173C531.811 634.45 575.309 716.879 432.989 665.063C397.538 652.086 358.522 744.267 325.441 634.566C298.554 545.286 252.887 640.474 236.691 568.449C216.822 479.815 337.683 478.293 153.248 379.629C-66.3294 262.098 190.756 -46.3409 324.128 -7.83741C333.095 -5.14173 341.556 -0.766312 348.996 5.37709C405.002 51.15 308.33 150.908 636.788 222.29C699.224 236.174 788.385 215.722 840.762 245.142Z" stroke="url(#paint12_linear_1503_3751)" stroke-width="0.5"/>
<path d="M858.538 238.887C908.237 266.646 870.406 348.805 836.459 439.578C831.167 453.494 825.874 467.41 820.884 481.539C804.555 526.814 872.908 544.186 886.819 573.886C929.077 664.49 910.917 726.797 862.808 754.216C816.369 780.551 742.366 775.033 668.713 728.595C535.962 644.612 581.722 730.895 432.89 676.756C395.758 663.273 354.921 760.279 320.388 645.258C292.483 551.644 244.48 651.744 227.447 576.416C206.65 483.961 333.622 482.445 140.21 379.495C-90.1151 256.658 181.041 -65.6217 319.289 -25.0418C328.816 -22.1782 337.321 -17.5457 345.321 -11.2335C403.579 36.8041 301.174 141.798 645.786 215.961C710.419 230.261 803.572 208.323 858.538 238.887Z" stroke="url(#paint13_linear_1503_3751)" stroke-width="0.5"/>
<path d="M876.567 232.586C928.25 261.065 889.967 346.75 853.461 441.15C848 455.626 842.28 470.145 836.819 484.621C819.469 531.665 890.837 549.577 905.486 580.477C950.047 675.192 931.091 740.556 880.84 769.406C832.517 797.128 755.241 791.115 678.215 742.076C539.627 653.53 587.692 743.926 431.877 687.808C393.064 673.822 350.408 775.653 314.42 655.31C285.242 557.405 234.947 662.678 217.289 583.743C195.52 487.211 328.691 486.216 126.517 378.678C-114.556 250.534 170.671 -85.5868 313.793 -42.9316C323.579 -40.1114 332.689 -35.053 340.778 -28.2257C401.288 22.0755 293.195 132.563 653.657 209.293C721.564 224.089 819.011 200.878 876.567 232.586Z" stroke="url(#paint14_linear_1503_3751)" stroke-width="0.5"/>
<path d="M894.349 226.329C948.058 255.783 909.025 344.783 870.474 442.72C864.542 457.542 858.699 472.88 853.069 487.915C834.741 536.986 909.293 554.878 924.514 587.536C971.641 686.319 951.928 754.997 899.489 785.022C849.024 814.174 768.688 807.364 688.379 756.24C543.74 663.433 594.067 757.683 431.741 699.242C391.245 684.75 346.723 791.148 309.328 665.742C278.875 563.547 226.502 673.691 208.007 591.451C185.265 490.842 324.849 490.065 113.395 378.028C-138.166 244.533 160.616 -105.341 308.871 -60.6535C318.959 -57.6209 328.631 -52.3934 337.022 -45.3537C399.784 7.21206 285.911 122.679 662.269 202.233C733.022 218.129 834.507 193.689 894.349 226.329Z" stroke="url(#paint15_linear_1503_3751)" stroke-width="0.5"/>
<path d="M912.422 220.287C968.162 250.717 928.371 343.03 887.823 444.762C881.722 460.144 875.453 476.087 869.396 491.727C850.046 542.565 927.615 560.998 943.831 594.81C993.264 697.704 972.801 769.697 918.474 801.109C866.079 831.396 782.256 824.384 698.62 770.92C547.975 674.11 600.519 771.956 431.467 711.494C389.291 696.496 342.949 807.718 304.1 676.993C272.374 570.507 217.708 685.823 198.632 600.235C175.177 495.503 320.702 495.291 100.485 378.667C-161.824 239.866 151.073 -123.591 304.161 -77.0851C314.809 -73.8845 324.48 -68.6581 333.477 -61.1913C398.49 -6.36196 278.839 114.084 671.137 196.72C744.167 211.957 849.947 186.244 912.422 220.287Z" stroke="url(#paint16_linear_1503_3751)" stroke-width="0.5"/>
<path d="M962.503 601.4C1063.93 811.26 885.433 898.627 708.433 784.614C551.738 683.543 606.845 785.457 430.98 722.458C387.38 706.91 338.96 823.008 298.401 687C265.399 576.225 208.656 696.41 188.741 607.517C164.314 498.709 315.995 498.759 87.0589 377.805C-204.734 223.669 189.26 -197.585 329.156 -78.4868C396.208 -21.0903 271.205 103.729 679.231 189.75C755.32 205.784 865.137 178.843 930.201 214.03C996.73 250.024 932.813 371.715 885.385 495.067C864.969 547.416 945.552 566.389 962.503 601.4Z" stroke="url(#paint17_linear_1503_3751)" stroke-width="0.5"/>
</g>
</g>
<defs>
<linearGradient id="paint0_linear_1503_3751" x1="28.5" y1="9" x2="225" y2="344" gradientUnits="userSpaceOnUse">
<stop stop-color="#522DD9"/>
<stop offset="1" stop-color="#8260FA"/>
</linearGradient>
<linearGradient id="paint1_linear_1503_3751" x1="461.009" y1="184.104" x2="461.009" y2="574.958" gradientUnits="userSpaceOnUse">
<stop stop-color="#653AFF"/>
<stop offset="1" stop-color="#B9A6FF"/>
</linearGradient>
<linearGradient id="paint2_linear_1503_3751" x1="462.182" y1="166.578" x2="462.182" y2="591.17" gradientUnits="userSpaceOnUse">
<stop stop-color="#653AFF"/>
<stop offset="1" stop-color="#B9A6FF"/>
</linearGradient>
<linearGradient id="paint3_linear_1503_3751" x1="463.784" y1="148.66" x2="463.784" y2="607.317" gradientUnits="userSpaceOnUse">
<stop stop-color="#653AFF"/>
<stop offset="1" stop-color="#B9A6FF"/>
</linearGradient>
<linearGradient id="paint4_linear_1503_3751" x1="465.973" y1="130.908" x2="465.973" y2="623.596" gradientUnits="userSpaceOnUse">
<stop stop-color="#653AFF"/>
<stop offset="1" stop-color="#B9A6FF"/>
</linearGradient>
<linearGradient id="paint5_linear_1503_3751" x1="467.481" y1="113.547" x2="467.481" y2="639.954" gradientUnits="userSpaceOnUse">
<stop stop-color="#653AFF"/>
<stop offset="1" stop-color="#B9A6FF"/>
</linearGradient>
<linearGradient id="paint6_linear_1503_3751" x1="469.128" y1="95.6289" x2="469.128" y2="655.942" gradientUnits="userSpaceOnUse">
<stop stop-color="#653AFF"/>
<stop offset="1" stop-color="#B9A6FF"/>
</linearGradient>
<linearGradient id="paint7_linear_1503_3751" x1="470.293" y1="77.8809" x2="470.293" y2="672.422" gradientUnits="userSpaceOnUse">
<stop stop-color="#653AFF"/>
<stop offset="1" stop-color="#B9A6FF"/>
</linearGradient>
<linearGradient id="paint8_linear_1503_3751" x1="472.622" y1="60.3828" x2="472.622" y2="688.782" gradientUnits="userSpaceOnUse">
<stop stop-color="#653AFF"/>
<stop offset="1" stop-color="#B9A6FF"/>
</linearGradient>
<linearGradient id="paint9_linear_1503_3751" x1="474.015" y1="42.502" x2="474.015" y2="704.952" gradientUnits="userSpaceOnUse">
<stop stop-color="#653AFF"/>
<stop offset="1" stop-color="#B9A6FF"/>
</linearGradient>
<linearGradient id="paint10_linear_1503_3751" x1="475.27" y1="24.9668" x2="475.27" y2="721.045" gradientUnits="userSpaceOnUse">
<stop stop-color="#653AFF"/>
<stop offset="1" stop-color="#B9A6FF"/>
</linearGradient>
<linearGradient id="paint11_linear_1503_3751" x1="477.269" y1="6.69922" x2="477.269" y2="737.376" gradientUnits="userSpaceOnUse">
<stop stop-color="#653AFF"/>
<stop offset="1" stop-color="#B9A6FF"/>
</linearGradient>
<linearGradient id="paint12_linear_1503_3751" x1="478.875" y1="-11.1406" x2="478.875" y2="753.389" gradientUnits="userSpaceOnUse">
<stop stop-color="#653AFF"/>
<stop offset="1" stop-color="#B9A6FF"/>
</linearGradient>
<linearGradient id="paint13_linear_1503_3751" x1="480.629" y1="-28.5508" x2="480.629" y2="769.956" gradientUnits="userSpaceOnUse">
<stop stop-color="#653AFF"/>
<stop offset="1" stop-color="#B9A6FF"/>
</linearGradient>
<linearGradient id="paint14_linear_1503_3751" x1="481.838" y1="-46.6465" x2="481.838" y2="785.896" gradientUnits="userSpaceOnUse">
<stop stop-color="#653AFF"/>
<stop offset="1" stop-color="#B9A6FF"/>
</linearGradient>
<linearGradient id="paint15_linear_1503_3751" x1="483.655" y1="-64.5684" x2="483.655" y2="802.225" gradientUnits="userSpaceOnUse">
<stop stop-color="#653AFF"/>
<stop offset="1" stop-color="#B9A6FF"/>
</linearGradient>
<linearGradient id="paint16_linear_1503_3751" x1="485.601" y1="-81.166" x2="485.601" y2="818.983" gradientUnits="userSpaceOnUse">
<stop stop-color="#653AFF"/>
<stop offset="1" stop-color="#B9A6FF"/>
</linearGradient>
<linearGradient id="paint17_linear_1503_3751" x1="487.019" y1="-99.416" x2="487.019" y2="834.983" gradientUnits="userSpaceOnUse">
<stop stop-color="#653AFF"/>
<stop offset="1" stop-color="#B9A6FF"/>
</linearGradient>
<clipPath id="clip0_1503_3751">
<rect width="1012" height="936" fill="white" transform="translate(-19 -100)"/>
</clipPath>
</defs>
</svg>
