<svg width="137" height="30" viewBox="0 0 137 30" fill="none" xmlns="http://www.w3.org/2000/svg">
<path fill-rule="evenodd" clip-rule="evenodd" d="M131.2 17.6005C131.6 16.3005 131.9 15.2005 131.9 14.2005C132 11.3005 130.1 10.4005 127.4 10.5005C123.6 10.7005 121.5 13.1005 120.3 16.5005C119.7 18.3005 119.7 20.0005 120.8 21.1005C121.6 21.8005 122.6 22.1005 123.7 22.3005C125.3 22.5005 127.2 22.2005 129.1 21.7005C129.3 20.7005 129.6 19.7005 129.8 18.7005C127.2 19.7005 123.4 20.5005 123.8 17.6005H131.2ZM128.4 15.1005H124.8C125.6 13.0005 128.7 11.9005 128.4 15.1005Z" fill="white"/>
<path fill-rule="evenodd" clip-rule="evenodd" d="M118.1 17.2002C118.5 15.9002 118.8 14.8002 118.8 13.8002C118.9 10.9002 117 10.0002 114.3 10.1002C110.5 10.3002 108.4 12.7002 107.2 16.1002C106.6 17.9002 106.6 19.6002 107.7 20.7002C108.5 21.4002 109.5 21.8002 110.6 21.9002C112.2 22.1002 114.1 21.8002 116.1 21.3002C116.3 20.3002 116.6 19.3002 116.8 18.3002C114.2 19.3002 110.4 20.1002 110.8 17.2002H118.1ZM115.3 14.7002H111.7C112.5 12.6002 115.6 11.5002 115.3 14.7002Z" fill="white"/>
<path fill-rule="evenodd" clip-rule="evenodd" d="M104.9 10.5999C103.2 10.3999 101.8 10.8999 100.5 12.2999L100.3 10.8999L96.9 10.7999L92.3 26.9999H96.1L97.9 20.9999C98.7 22.1999 100 22.4999 101.9 22.0999C102.9 21.7999 103.6 21.1999 104.3 20.4999C105.6 19.1999 106.5 17.3999 106.8 15.0999C107.2 12.4999 106.5 10.9999 104.9 10.5999ZM102.5 16.3999C102.1 17.9999 101.2 19.4999 100 19.2999C98.8 19.0999 98.8 18.1999 99.3 16.5999C99.7 14.9999 100.7 13.3999 101.7 13.5999C102.8 13.7999 102.9 14.7999 102.5 16.3999Z" fill="white"/>
<path fill-rule="evenodd" clip-rule="evenodd" d="M89.4 10.6006C85.6 10.6006 82.9 13.3006 82 16.5006C81.1 19.8006 82.5 22.4006 86 22.4006C89.6 22.4006 92.4 19.7006 93.4 16.5006C94.3 13.3006 93.1 10.6006 89.4 10.6006ZM89.5 16.5006C89 18.2006 88 19.7006 86.7 19.6006C85.4 19.4006 85.4 18.4006 85.8 16.7006C86.3 15.0006 87.3 13.3006 88.6 13.5006C89.9 13.7006 90 14.8006 89.5 16.5006Z" fill="white"/>
<path fill-rule="evenodd" clip-rule="evenodd" d="M74.1 12.2004L75.8 6.50039L71.8 6.40039L67.3 22.1004H71.1L72.3 18.1004L73 15.9004C73.8 13.3004 77.3 12.6004 76.4 15.7004L74.5 22.2004H78.4L80.9 14.1004C81.5 11.9004 78.6 8.50039 74.1 12.2004Z" fill="white"/>
<path fill-rule="evenodd" clip-rule="evenodd" d="M38.8001 10.3006C37.1001 10.2006 35.6001 10.8006 34.5001 12.4006L34.0001 10.5006H30.9001L29.6001 22.2006H33.6001L34.3001 16.1006C34.5001 14.6006 36.3001 13.8006 38.4001 14.4006L38.8001 10.3006Z" fill="white"/>
<path fill-rule="evenodd" clip-rule="evenodd" d="M24.7001 10.5H28.7001L27.3001 22.1H24.2001L24.0001 20.7C21.7001 23.3 16.3001 22.7 16.6001 19.2L17.5001 10.6H21.6001L20.8001 17.3C20.5001 20 23.7001 19.7 24.0001 16.8L24.7001 10.5Z" fill="white"/>
<path fill-rule="evenodd" clip-rule="evenodd" d="M0.700073 13.8002C1.40007 9.50015 4.00007 7.30015 7.90007 7.00015C12.1001 6.70015 15.3001 8.00015 15.2001 13.6002C15.1001 18.2002 13.0001 21.2002 9.30007 21.9002C2.90007 23.2002 -0.399927 20.1002 0.700073 13.8002ZM5.00007 14.1002C5.40007 11.7002 6.50007 10.5002 8.00007 10.3002C9.70007 10.2002 11.0001 10.9002 10.8001 14.0002C10.7001 16.6002 9.80007 18.2002 8.30007 18.6002C5.70007 19.4002 4.40007 17.7002 5.00007 14.1002Z" fill="white"/>
<path d="M109.4 28.9002C110 28.9002 110.4 28.5002 110.4 28.0002C110.4 27.5002 110.1 27.2002 109.6 27.2002C109 27.2002 108.7 27.6002 108.7 28.1002C108.6 28.6002 108.9 28.9002 109.4 28.9002ZM114.7 27.6002C114.5 27.7002 114.2 27.8002 113.8 27.8002C113.3 27.8002 112.9 27.5002 112.9 26.9002C112.9 26.1002 113.5 25.3002 114.5 25.3002C114.8 25.3002 115 25.4002 115.2 25.4002L115.5 24.4002C115.3 24.3002 114.9 24.2002 114.5 24.2002C112.7 24.2002 111.4 25.5002 111.4 27.0002C111.4 28.2002 112.2 28.8002 113.4 28.8002C114 28.8002 114.5 28.7002 114.8 28.6002L114.7 27.6002ZM118.4 24.2002C116.7 24.2002 115.5 25.5002 115.5 27.0002C115.5 28.1002 116.3 28.9002 117.6 28.9002C119.3 28.9002 120.5 27.7002 120.5 26.1002C120.4 25.0002 119.7 24.2002 118.4 24.2002ZM118.2 25.2002C118.8 25.2002 119 25.6002 119 26.1002C119 26.9002 118.6 27.9002 117.8 27.9002C117.3 27.9002 117 27.6002 117 27.0002C116.9 26.3002 117.4 25.2002 118.2 25.2002ZM122.2 28.8002L122.6 26.8002C122.8 25.9002 123.3 25.3002 123.8 25.3002C124.1 25.3002 124.2 25.5002 124.2 25.9002C124.2 26.1002 124.2 26.2002 124.1 26.4002L123.6 28.9002H125L125.4 26.9002C125.6 26.0002 126.1 25.4002 126.5 25.4002C126.8 25.4002 127 25.6002 127 25.9002C127 26.1002 127 26.3002 126.9 26.4002L126.4 28.8002H127.8L128.3 26.2002C128.3 26.0002 128.4 25.6002 128.4 25.4002C128.4 24.6002 128 24.2002 127.2 24.2002C126.6 24.2002 126 24.5002 125.5 25.0002C125.5 24.6002 125.1 24.2002 124.4 24.2002C123.8 24.2002 123.2 24.5002 122.7 25.0002L122.8 24.3002H121.6C121.5 24.7002 121.5 25.2002 121.4 25.8002L120.8 28.8002H122.2Z" fill="white"/>
<path fill-rule="evenodd" clip-rule="evenodd" d="M39.1001 6.0002H43.1001L41.7002 1.2002H32.9002C32.2002 1.2002 31.7002 1.8002 31.9002 2.4002L32.4002 4.0002C32.6002 4.6002 33.1002 4.9002 33.7002 4.9002H38.7002L39.1001 6.0002Z" fill="white"/>
<path fill-rule="evenodd" clip-rule="evenodd" d="M59.1 24.2002C60.4 24.2002 61.4001 25.2002 61.4001 26.5002C61.4001 27.8002 60.4 28.8002 59.1 28.8002C57.8 28.8002 56.8 27.7002 56.8 26.5002C56.8 25.2002 57.8 24.2002 59.1 24.2002Z" fill="white"/>
<path fill-rule="evenodd" clip-rule="evenodd" d="M49.5002 24.2002C50.8002 24.2002 51.8002 25.2002 51.8002 26.5002C51.8002 27.8002 50.8002 28.8002 49.5002 28.8002C48.2002 28.8002 47.2002 27.7002 47.2002 26.5002C47.2002 25.2002 48.2002 24.2002 49.5002 24.2002Z" fill="white"/>
<path fill-rule="evenodd" clip-rule="evenodd" d="M66.6001 11.8L67.8001 7.2C67.9001 6.8 67.6001 6.5 67.3001 6.5H39.9001C39.6001 6.5 39.4001 6.8 39.5001 7.1L42.4001 15.3C42.6001 15.8 43.1001 16.2 43.6001 16.2H61.8001L61.2001 18.5H44.3001C43.9001 18.5 43.6001 18.9 43.7001 19.4L44.4001 21.4C44.6001 21.9 45.1001 22.2 45.6001 22.2H62.8001C63.4001 22.2 63.9001 21.8 64.0001 21.3L66.1001 13.6C66.2001 13.2 65.9001 12.8 65.5001 12.8H45.1001L44.4001 10.5H63.2001L62.8001 11.9H66.6001V11.8Z" fill="white"/>
<path d="M132.3 8.1C132.3 7.8 132.4 7.5 132.5 7.3C132.6 7 132.8 6.9 133.1 6.7C133.3 6.6 133.6 6.5 133.9 6.5C134.2 6.5 134.5 6.6 134.7 6.7C135 6.8 135.2 7 135.3 7.3C135.4 7.6 135.5 7.8 135.5 8.1C135.5 8.4 135.4 8.6 135.3 8.9C135.2 9.1 135 9.3 134.7 9.5C134.4 9.6 134.2 9.7 133.9 9.7C133.6 9.7 133.3 9.6 133.1 9.5C132.9 9.4 132.7 9.2 132.5 8.9C132.3 8.7 132.3 8.4 132.3 8.1ZM132.5 8.1C132.5 8.4 132.6 8.6 132.7 8.8C132.8 9 133 9.2 133.2 9.3C133.4 9.4 133.7 9.5 133.9 9.5C134.2 9.5 134.4 9.4 134.6 9.3C134.8 9.2 135 9 135.1 8.8C135.2 8.6 135.3 8.3 135.3 8.1C135.3 7.8 135.2 7.6 135.1 7.4C135 7.2 134.8 7 134.6 6.9C134.4 6.8 134.1 6.7 133.9 6.7C133.6 6.7 133.4 6.8 133.2 6.9C133 7 132.8 7.2 132.7 7.4C132.5 7.6 132.5 7.9 132.5 8.1ZM134.5 7.7C134.5 7.8 134.5 7.9 134.4 8C134.3 8.1 134.3 8.2 134.2 8.2L134.7 9H134.4L133.9 8.2H133.5V9H133.3V7.1H133.8C134 7.1 134.2 7.1 134.3 7.2C134.4 7.4 134.5 7.5 134.5 7.7ZM133.6 8.1H133.8C133.9 8.1 134 8.1 134.1 8C134.2 7.9 134.2 7.8 134.2 7.7C134.2 7.5 134.1 7.3 133.8 7.3H133.6V8.1Z" fill="white"/>
</svg>
