<?xml version="1.0" encoding="utf-8"?>
<!-- Generator: Adobe Illustrator 27.8.1, SVG Export Plug-In . SVG Version: 6.00 Build 0)  -->
<svg version="1.1" id="Layer_1" xmlns="http://www.w3.org/2000/svg" xmlns:xlink="http://www.w3.org/1999/xlink" x="0px" y="0px"
	 viewBox="0 0 140 48" style="enable-background:new 0 0 140 48;" xml:space="preserve">
<style type="text/css">
	.st0{fill-rule:evenodd;clip-rule:evenodd;fill:#FFFFFF;}
	.st1{fill:#FFFFFF;}
</style>
<g>
	<path class="st0" d="M133.2,26.6c0.4-1.3,0.7-2.4,0.7-3.4c0.1-2.9-1.8-3.8-4.5-3.7c-3.8,0.2-5.9,2.6-7.1,6
		c-0.6,1.8-0.6,3.5,0.5,4.6c0.8,0.7,1.8,1,2.9,1.2c1.6,0.2,3.5-0.1,5.4-0.6c0.2-1,0.5-2,0.7-3c-2.6,1-6.4,1.8-6-1.1H133.2z
		 M130.4,24.1h-3.6C127.6,22,130.7,20.9,130.4,24.1"/>
	<path class="st0" d="M120.1,26.2c0.4-1.3,0.7-2.4,0.7-3.4c0.1-2.9-1.8-3.8-4.5-3.7c-3.8,0.2-5.9,2.6-7.1,6
		c-0.6,1.8-0.6,3.5,0.5,4.6c0.8,0.7,1.8,1.1,2.9,1.2c1.6,0.2,3.5-0.1,5.5-0.6c0.2-1,0.5-2,0.7-3c-2.6,1-6.4,1.8-6-1.1H120.1z
		 M117.3,23.7h-3.6C114.5,21.6,117.6,20.5,117.3,23.7"/>
	<path class="st0" d="M106.9,19.6c-1.7-0.2-3.1,0.3-4.4,1.7l-0.2-1.4l-3.4-0.1l-4.6,16.2h3.8l1.8-6c0.8,1.2,2.1,1.5,4,1.1
		c1-0.3,1.7-0.9,2.4-1.6c1.3-1.3,2.2-3.1,2.5-5.4C109.2,21.5,108.5,20,106.9,19.6 M104.5,25.4c-0.4,1.6-1.3,3.1-2.5,2.9
		c-1.2-0.2-1.2-1.1-0.7-2.7c0.4-1.6,1.4-3.2,2.4-3C104.8,22.8,104.9,23.8,104.5,25.4"/>
	<path class="st0" d="M91.4,19.6c-3.8,0-6.5,2.7-7.4,5.9c-0.9,3.3,0.5,5.9,4,5.9c3.6,0,6.4-2.7,7.4-5.9
		C96.3,22.3,95.1,19.6,91.4,19.6 M91.5,25.5c-0.5,1.7-1.5,3.2-2.8,3.1c-1.3-0.2-1.3-1.2-0.9-2.9c0.5-1.7,1.5-3.4,2.8-3.2
		C91.9,22.7,92,23.8,91.5,25.5"/>
	<path class="st0" d="M76.1,21.2l1.7-5.7l-4-0.1l-4.5,15.7h3.8l1.2-4l0.7-2.2c0.8-2.6,4.3-3.3,3.4-0.2l-1.9,6.5h3.9l2.5-8.1
		C83.5,20.9,80.6,17.5,76.1,21.2"/>
	<path class="st0" d="M40.8,19.3c-1.7-0.1-3.2,0.5-4.3,2.1L36,19.5l-3.1,0l-1.3,11.7h4l0.7-6.1c0.2-1.5,2-2.3,4.1-1.7L40.8,19.3z"/>
	<path class="st0" d="M26.7,19.5h4l-1.4,11.6h-3.1L26,29.7c-2.3,2.6-7.7,2-7.4-1.5l0.9-8.6h4.1l-0.8,6.7c-0.3,2.7,2.9,2.4,3.2-0.5
		L26.7,19.5z"/>
	<path class="st0" d="M2.7,22.8C3.4,18.5,6,16.3,9.9,16c4.2-0.3,7.4,1,7.3,6.6c-0.1,4.6-2.2,7.6-5.9,8.3C4.9,32.2,1.6,29.1,2.7,22.8
		 M7,23.1c0.4-2.4,1.5-3.6,3-3.8c1.7-0.1,3,0.6,2.8,3.7c-0.1,2.6-1,4.2-2.5,4.6C7.7,28.4,6.4,26.7,7,23.1"/>
	<path class="st1" d="M111.4,37.9c0.6,0,1-0.4,1-0.9c0-0.5-0.3-0.8-0.8-0.8c-0.6,0-0.9,0.4-0.9,0.9
		C110.6,37.6,110.9,37.9,111.4,37.9 M116.7,36.6c-0.2,0.1-0.5,0.2-0.9,0.2c-0.5,0-0.9-0.3-0.9-0.9c0-0.8,0.6-1.6,1.6-1.6
		c0.3,0,0.5,0.1,0.7,0.1l0.3-1c-0.2-0.1-0.6-0.2-1-0.2c-1.8,0-3.1,1.3-3.1,2.8c0,1.2,0.8,1.8,2,1.8c0.6,0,1.1-0.1,1.4-0.2
		L116.7,36.6z M120.4,33.2c-1.7,0-2.9,1.3-2.9,2.8c0,1.1,0.8,1.9,2.1,1.9c1.7,0,2.9-1.2,2.9-2.8C122.4,34,121.7,33.2,120.4,33.2
		 M120.2,34.2c0.6,0,0.8,0.4,0.8,0.9c0,0.8-0.4,1.8-1.2,1.8c-0.5,0-0.8-0.3-0.8-0.9C118.9,35.3,119.4,34.2,120.2,34.2 M124.2,37.8
		l0.4-2c0.2-0.9,0.7-1.5,1.2-1.5c0.3,0,0.4,0.2,0.4,0.6c0,0.2,0,0.3-0.1,0.5l-0.5,2.5h1.4l0.4-2c0.2-0.9,0.7-1.5,1.1-1.5
		c0.3,0,0.5,0.2,0.5,0.5c0,0.2,0,0.4-0.1,0.5l-0.5,2.4h1.4l0.5-2.6c0-0.2,0.1-0.6,0.1-0.8c0-0.8-0.4-1.2-1.2-1.2
		c-0.6,0-1.2,0.3-1.7,0.8c0-0.4-0.4-0.8-1.1-0.8c-0.6,0-1.2,0.3-1.7,0.8h0l0.1-0.7h-1.2c-0.1,0.4-0.1,0.9-0.2,1.5l-0.6,3H124.2z"/>
	<path class="st0" d="M41.1,15h4l-1.4-4.8h-8.8c-0.7,0-1.2,0.6-1,1.2l0.5,1.6c0.2,0.6,0.7,0.9,1.3,0.9h5L41.1,15z"/>
	<path class="st0" d="M61.1,33.2c1.3,0,2.3,1,2.3,2.3c0,1.3-1,2.3-2.3,2.3c-1.3,0-2.3-1.1-2.3-2.3C58.8,34.2,59.8,33.2,61.1,33.2"/>
	<path class="st0" d="M51.5,33.2c1.3,0,2.3,1,2.3,2.3c0,1.3-1,2.3-2.3,2.3c-1.3,0-2.3-1.1-2.3-2.3C49.2,34.2,50.2,33.2,51.5,33.2"/>
	<path class="st0" d="M68.6,20.8l1.2-4.6c0.1-0.4-0.2-0.7-0.5-0.7H41.9c-0.3,0-0.5,0.3-0.4,0.6l2.9,8.2c0.2,0.5,0.7,0.9,1.2,0.9
		h18.2l-0.6,2.3H46.3c-0.4,0-0.7,0.4-0.6,0.9l0.7,2c0.2,0.5,0.7,0.8,1.2,0.8h17.2c0.6,0,1.1-0.4,1.2-0.9l2.1-7.7
		c0.1-0.4-0.2-0.8-0.6-0.8H47.1l-0.7-2.3h18.8l-0.4,1.4H68.6z"/>
	<g>
		<path class="st1" d="M134.3,17.1c0-0.3,0.1-0.6,0.2-0.8c0.1-0.3,0.3-0.4,0.6-0.6c0.2-0.1,0.5-0.2,0.8-0.2c0.3,0,0.6,0.1,0.8,0.2
			c0.3,0.1,0.5,0.3,0.6,0.6s0.2,0.5,0.2,0.8c0,0.3-0.1,0.5-0.2,0.8c-0.1,0.2-0.3,0.4-0.6,0.6c-0.3,0.1-0.5,0.2-0.8,0.2
			c-0.3,0-0.6-0.1-0.8-0.2c-0.2-0.1-0.4-0.3-0.6-0.6C134.3,17.7,134.3,17.4,134.3,17.1z M134.5,17.1c0,0.3,0.1,0.5,0.2,0.7
			c0.1,0.2,0.3,0.4,0.5,0.5c0.2,0.1,0.5,0.2,0.7,0.2c0.3,0,0.5-0.1,0.7-0.2c0.2-0.1,0.4-0.3,0.5-0.5c0.1-0.2,0.2-0.5,0.2-0.7
			c0-0.3-0.1-0.5-0.2-0.7c-0.1-0.2-0.3-0.4-0.5-0.5c-0.2-0.1-0.5-0.2-0.7-0.2c-0.3,0-0.5,0.1-0.7,0.2c-0.2,0.1-0.4,0.3-0.5,0.5
			C134.5,16.6,134.5,16.9,134.5,17.1z M136.5,16.7c0,0.1,0,0.2-0.1,0.3c-0.1,0.1-0.1,0.2-0.2,0.2l0.5,0.8h-0.3l-0.5-0.8h-0.4v0.8
			h-0.2v-1.9h0.5c0.2,0,0.4,0,0.5,0.1C136.4,16.4,136.5,16.5,136.5,16.7z M135.6,17.1h0.2c0.1,0,0.2,0,0.3-0.1
			c0.1-0.1,0.1-0.2,0.1-0.3c0-0.2-0.1-0.4-0.4-0.4h-0.2V17.1z"/>
	</g>
</g>
</svg>
