<svg width="1440" height="914" viewBox="0 0 1440 914" fill="none" xmlns="http://www.w3.org/2000/svg">
<g clip-path="url(#clip0_1166_6049)">
<rect width="1440" height="914" fill="url(#paint0_radial_1166_6049)"/>
<g opacity="0.4">
<mask id="mask0_1166_6049" style="mask-type:luminance" maskUnits="userSpaceOnUse" x="0" y="0" width="1440" height="1095">
<path d="M1440 0H0V1094.92H1440V0Z" fill="white"/>
</mask>
<g mask="url(#mask0_1166_6049)">
<mask id="mask1_1166_6049" style="mask-type:luminance" maskUnits="userSpaceOnUse" x="0" y="0" width="1439" height="1095">
<path d="M0.626953 0.210938H1438.81V1094.49H0.626953V0.210938Z" fill="white"/>
</mask>
<g mask="url(#mask1_1166_6049)">
<path d="M1 -294V-43.9542L715.193 974.881L127.332 -294H1ZM349.868 -294L715.396 971.397L521.014 -294H349.868ZM680.651 -294L716.399 968.298L829.749 -294H680.651ZM996.479 -294L718.043 966.241L1184.14 -294H996.479ZM1439 -287.033L720 965.5L1439 145.665V-287.033ZM1 341.922V639.009L715.804 978.255L1 341.922ZM1439 488.065L721.973 966.241L1439 765.924V488.065ZM1 916.456V1175.99L717.15 980.86L1 916.456ZM723.617 968.298L1439 1302.66V1037.47L723.617 968.298ZM724.619 971.397L1439 1982.58V1613.38L724.619 971.397ZM724.823 974.881L1089.41 2225H1299.45L724.823 974.881ZM724.212 978.255L762.262 2225H912.801L724.212 978.255ZM722.85 980.86L451.099 2225H608.356L722.85 980.86ZM718.998 982.314L1 1466.66V1794.14L718.998 982.314ZM721.018 982.314L13.1196 2225H257.515L721.018 982.314Z" fill="#F1D062"/>
</g>
</g>
</g>
<rect width="1440" height="604" transform="translate(0 310)" fill="url(#paint1_radial_1166_6049)"/>
<g clip-path="url(#clip1_1166_6049)">
<rect x="30.6489" y="268" width="19.5038" height="730" fill="url(#paint2_linear_1166_6049)"/>
<rect y="268" width="19.5038" height="730" fill="url(#paint3_linear_1166_6049)"/>
<rect x="61.2974" y="268" width="19.5038" height="730" fill="url(#paint4_linear_1166_6049)"/>
<rect x="91.9463" y="268" width="19.5038" height="730" fill="url(#paint5_linear_1166_6049)"/>
<rect x="122.596" y="268" width="19.5038" height="730" fill="url(#paint6_linear_1166_6049)"/>
<rect x="153.244" y="268" width="19.5038" height="730" fill="url(#paint7_linear_1166_6049)"/>
<rect x="183.893" y="268" width="19.5038" height="730" fill="url(#paint8_linear_1166_6049)"/>
<rect x="214.542" y="268" width="19.5038" height="730" fill="url(#paint9_linear_1166_6049)"/>
<rect x="245.19" y="268" width="19.5038" height="730" fill="url(#paint10_linear_1166_6049)"/>
<rect x="275.839" y="268" width="19.5038" height="730" fill="url(#paint11_linear_1166_6049)"/>
<rect x="306.489" y="268" width="19.5038" height="730" fill="url(#paint12_linear_1166_6049)"/>
<rect x="337.138" y="268" width="19.5038" height="730" fill="url(#paint13_linear_1166_6049)"/>
<rect x="367.787" y="268" width="19.5038" height="730" fill="url(#paint14_linear_1166_6049)"/>
<rect x="398.436" y="268" width="19.5038" height="730" fill="url(#paint15_linear_1166_6049)"/>
<rect x="429.084" y="268" width="19.5038" height="730" fill="url(#paint16_linear_1166_6049)"/>
<rect x="459.733" y="268" width="19.5038" height="730" fill="url(#paint17_linear_1166_6049)"/>
<rect x="490.382" y="268" width="19.5038" height="730" fill="url(#paint18_linear_1166_6049)"/>
<rect x="521.03" y="268" width="19.5038" height="730" fill="url(#paint19_linear_1166_6049)"/>
<rect x="551.68" y="268" width="19.5038" height="730" fill="url(#paint20_linear_1166_6049)"/>
<rect x="582.329" y="268" width="19.5038" height="730" fill="url(#paint21_linear_1166_6049)"/>
<rect x="612.977" y="268" width="19.5038" height="730" fill="url(#paint22_linear_1166_6049)"/>
<rect x="643.626" y="268" width="19.5038" height="730" fill="url(#paint23_linear_1166_6049)"/>
<rect x="674.275" y="268" width="19.5038" height="730" fill="url(#paint24_linear_1166_6049)"/>
</g>
<g clip-path="url(#clip2_1166_6049)">
<rect x="733.572" y="268" width="19.5038" height="730" fill="url(#paint25_linear_1166_6049)"/>
<rect x="702.922" y="268" width="19.5038" height="730" fill="url(#paint26_linear_1166_6049)"/>
<rect x="764.22" y="268" width="19.5038" height="730" fill="url(#paint27_linear_1166_6049)"/>
<rect x="794.869" y="268" width="19.5038" height="730" fill="url(#paint28_linear_1166_6049)"/>
<rect x="825.519" y="268" width="19.5038" height="730" fill="url(#paint29_linear_1166_6049)"/>
<rect x="856.167" y="268" width="19.5038" height="730" fill="url(#paint30_linear_1166_6049)"/>
<rect x="886.816" y="268" width="19.5038" height="730" fill="url(#paint31_linear_1166_6049)"/>
<rect x="917.465" y="268" width="19.5038" height="730" fill="url(#paint32_linear_1166_6049)"/>
<rect x="948.113" y="268" width="19.5038" height="730" fill="url(#paint33_linear_1166_6049)"/>
<rect x="978.762" y="268" width="19.5038" height="730" fill="url(#paint34_linear_1166_6049)"/>
<rect x="1009.41" y="268" width="19.5038" height="730" fill="url(#paint35_linear_1166_6049)"/>
<rect x="1040.06" y="268" width="19.5038" height="730" fill="url(#paint36_linear_1166_6049)"/>
<rect x="1070.71" y="268" width="19.5038" height="730" fill="url(#paint37_linear_1166_6049)"/>
<rect x="1101.36" y="268" width="19.5038" height="730" fill="url(#paint38_linear_1166_6049)"/>
<rect x="1132.01" y="268" width="19.5038" height="730" fill="url(#paint39_linear_1166_6049)"/>
<rect x="1162.66" y="268" width="19.5038" height="730" fill="url(#paint40_linear_1166_6049)"/>
<rect x="1193.3" y="268" width="19.5038" height="730" fill="url(#paint41_linear_1166_6049)"/>
<rect x="1223.95" y="268" width="19.5038" height="730" fill="url(#paint42_linear_1166_6049)"/>
<rect x="1254.6" y="268" width="19.5038" height="730" fill="url(#paint43_linear_1166_6049)"/>
<rect x="1285.25" y="268" width="19.5038" height="730" fill="url(#paint44_linear_1166_6049)"/>
<rect x="1315.9" y="268" width="19.5038" height="730" fill="url(#paint45_linear_1166_6049)"/>
<rect x="1346.55" y="268" width="19.5038" height="730" fill="url(#paint46_linear_1166_6049)"/>
<rect x="1377.2" y="268" width="19.5038" height="730" fill="url(#paint47_linear_1166_6049)"/>
<rect x="1408" y="268" width="19.5038" height="730" fill="url(#paint48_linear_1166_6049)"/>
</g>
<rect width="1440" height="38.6967" transform="translate(0 310)" fill="url(#paint49_linear_1166_6049)"/>
<rect width="1440" height="46" transform="matrix(1 0 0 -1 0 914)" fill="url(#paint50_linear_1166_6049)"/>
</g>
<defs>
<radialGradient id="paint0_radial_1166_6049" cx="0" cy="0" r="1" gradientUnits="userSpaceOnUse" gradientTransform="translate(720 199.469) rotate(90) scale(715 1126.48)">
<stop offset="0.387786" stop-color="#FFECB7"/>
<stop offset="0.990955" stop-color="#FFD76A"/>
</radialGradient>
<radialGradient id="paint1_radial_1166_6049" cx="0" cy="0" r="1" gradientUnits="userSpaceOnUse" gradientTransform="translate(720 302) rotate(90) scale(302 720)">
<stop stop-color="#FFF7E1"/>
<stop offset="1" stop-color="#FFF5DB"/>
</radialGradient>
<linearGradient id="paint2_linear_1166_6049" x1="40.4008" y1="268" x2="40.4008" y2="998" gradientUnits="userSpaceOnUse">
<stop stop-color="#FEF4D8"/>
<stop offset="1" stop-color="#FFEFC4"/>
</linearGradient>
<linearGradient id="paint3_linear_1166_6049" x1="9.75191" y1="268" x2="9.75191" y2="998" gradientUnits="userSpaceOnUse">
<stop stop-color="#FEF4D8"/>
<stop offset="1" stop-color="#FFEFC4"/>
</linearGradient>
<linearGradient id="paint4_linear_1166_6049" x1="71.0493" y1="268" x2="71.0493" y2="998" gradientUnits="userSpaceOnUse">
<stop stop-color="#FEF4D8"/>
<stop offset="1" stop-color="#FFEFC4"/>
</linearGradient>
<linearGradient id="paint5_linear_1166_6049" x1="101.698" y1="268" x2="101.698" y2="998" gradientUnits="userSpaceOnUse">
<stop stop-color="#FEF4D8"/>
<stop offset="1" stop-color="#FFEFC4"/>
</linearGradient>
<linearGradient id="paint6_linear_1166_6049" x1="132.348" y1="268" x2="132.348" y2="998" gradientUnits="userSpaceOnUse">
<stop stop-color="#FEF4D8"/>
<stop offset="1" stop-color="#FFEFC4"/>
</linearGradient>
<linearGradient id="paint7_linear_1166_6049" x1="162.996" y1="268" x2="162.996" y2="998" gradientUnits="userSpaceOnUse">
<stop stop-color="#FEF4D8"/>
<stop offset="1" stop-color="#FFEFC4"/>
</linearGradient>
<linearGradient id="paint8_linear_1166_6049" x1="193.645" y1="268" x2="193.645" y2="998" gradientUnits="userSpaceOnUse">
<stop stop-color="#FEF4D8"/>
<stop offset="1" stop-color="#FFEFC4"/>
</linearGradient>
<linearGradient id="paint9_linear_1166_6049" x1="224.294" y1="268" x2="224.294" y2="998" gradientUnits="userSpaceOnUse">
<stop stop-color="#FEF4D8"/>
<stop offset="1" stop-color="#FFEFC4"/>
</linearGradient>
<linearGradient id="paint10_linear_1166_6049" x1="254.942" y1="268" x2="254.942" y2="998" gradientUnits="userSpaceOnUse">
<stop stop-color="#FEF4D8"/>
<stop offset="1" stop-color="#FFEFC4"/>
</linearGradient>
<linearGradient id="paint11_linear_1166_6049" x1="285.591" y1="268" x2="285.591" y2="998" gradientUnits="userSpaceOnUse">
<stop stop-color="#FEF4D8"/>
<stop offset="1" stop-color="#FFEFC4"/>
</linearGradient>
<linearGradient id="paint12_linear_1166_6049" x1="316.241" y1="268" x2="316.241" y2="998" gradientUnits="userSpaceOnUse">
<stop stop-color="#FEF4D8"/>
<stop offset="1" stop-color="#FFEFC4"/>
</linearGradient>
<linearGradient id="paint13_linear_1166_6049" x1="346.89" y1="268" x2="346.89" y2="998" gradientUnits="userSpaceOnUse">
<stop stop-color="#FEF4D8"/>
<stop offset="1" stop-color="#FFEFC4"/>
</linearGradient>
<linearGradient id="paint14_linear_1166_6049" x1="377.539" y1="268" x2="377.539" y2="998" gradientUnits="userSpaceOnUse">
<stop stop-color="#FEF4D8"/>
<stop offset="1" stop-color="#FFEFC4"/>
</linearGradient>
<linearGradient id="paint15_linear_1166_6049" x1="408.187" y1="268" x2="408.187" y2="998" gradientUnits="userSpaceOnUse">
<stop stop-color="#FEF4D8"/>
<stop offset="1" stop-color="#FFEFC4"/>
</linearGradient>
<linearGradient id="paint16_linear_1166_6049" x1="438.836" y1="268" x2="438.836" y2="998" gradientUnits="userSpaceOnUse">
<stop stop-color="#FEF4D8"/>
<stop offset="1" stop-color="#FFEFC4"/>
</linearGradient>
<linearGradient id="paint17_linear_1166_6049" x1="469.485" y1="268" x2="469.485" y2="998" gradientUnits="userSpaceOnUse">
<stop stop-color="#FEF4D8"/>
<stop offset="1" stop-color="#FFEFC4"/>
</linearGradient>
<linearGradient id="paint18_linear_1166_6049" x1="500.134" y1="268" x2="500.134" y2="998" gradientUnits="userSpaceOnUse">
<stop stop-color="#FEF4D8"/>
<stop offset="1" stop-color="#FFEFC4"/>
</linearGradient>
<linearGradient id="paint19_linear_1166_6049" x1="530.782" y1="268" x2="530.782" y2="998" gradientUnits="userSpaceOnUse">
<stop stop-color="#FEF4D8"/>
<stop offset="1" stop-color="#FFEFC4"/>
</linearGradient>
<linearGradient id="paint20_linear_1166_6049" x1="561.432" y1="268" x2="561.432" y2="998" gradientUnits="userSpaceOnUse">
<stop stop-color="#FEF4D8"/>
<stop offset="1" stop-color="#FFEFC4"/>
</linearGradient>
<linearGradient id="paint21_linear_1166_6049" x1="592.081" y1="268" x2="592.081" y2="998" gradientUnits="userSpaceOnUse">
<stop stop-color="#FEF4D8"/>
<stop offset="1" stop-color="#FFEFC4"/>
</linearGradient>
<linearGradient id="paint22_linear_1166_6049" x1="622.729" y1="268" x2="622.729" y2="998" gradientUnits="userSpaceOnUse">
<stop stop-color="#FEF4D8"/>
<stop offset="1" stop-color="#FFEFC4"/>
</linearGradient>
<linearGradient id="paint23_linear_1166_6049" x1="653.378" y1="268" x2="653.378" y2="998" gradientUnits="userSpaceOnUse">
<stop stop-color="#FEF4D8"/>
<stop offset="1" stop-color="#FFEFC4"/>
</linearGradient>
<linearGradient id="paint24_linear_1166_6049" x1="684.027" y1="268" x2="684.027" y2="998" gradientUnits="userSpaceOnUse">
<stop stop-color="#FEF4D8"/>
<stop offset="1" stop-color="#FFEFC4"/>
</linearGradient>
<linearGradient id="paint25_linear_1166_6049" x1="743.324" y1="268" x2="743.324" y2="998" gradientUnits="userSpaceOnUse">
<stop stop-color="#FEF4D8"/>
<stop offset="1" stop-color="#FFEFC4"/>
</linearGradient>
<linearGradient id="paint26_linear_1166_6049" x1="712.674" y1="268" x2="712.674" y2="998" gradientUnits="userSpaceOnUse">
<stop stop-color="#FEF4D8"/>
<stop offset="1" stop-color="#FFEFC4"/>
</linearGradient>
<linearGradient id="paint27_linear_1166_6049" x1="773.972" y1="268" x2="773.972" y2="998" gradientUnits="userSpaceOnUse">
<stop stop-color="#FEF4D8"/>
<stop offset="1" stop-color="#FFEFC4"/>
</linearGradient>
<linearGradient id="paint28_linear_1166_6049" x1="804.621" y1="268" x2="804.621" y2="998" gradientUnits="userSpaceOnUse">
<stop stop-color="#FEF4D8"/>
<stop offset="1" stop-color="#FFEFC4"/>
</linearGradient>
<linearGradient id="paint29_linear_1166_6049" x1="835.27" y1="268" x2="835.27" y2="998" gradientUnits="userSpaceOnUse">
<stop stop-color="#FEF4D8"/>
<stop offset="1" stop-color="#FFEFC4"/>
</linearGradient>
<linearGradient id="paint30_linear_1166_6049" x1="865.919" y1="268" x2="865.919" y2="998" gradientUnits="userSpaceOnUse">
<stop stop-color="#FEF4D8"/>
<stop offset="1" stop-color="#FFEFC4"/>
</linearGradient>
<linearGradient id="paint31_linear_1166_6049" x1="896.568" y1="268" x2="896.568" y2="998" gradientUnits="userSpaceOnUse">
<stop stop-color="#FEF4D8"/>
<stop offset="1" stop-color="#FFEFC4"/>
</linearGradient>
<linearGradient id="paint32_linear_1166_6049" x1="927.217" y1="268" x2="927.217" y2="998" gradientUnits="userSpaceOnUse">
<stop stop-color="#FEF4D8"/>
<stop offset="1" stop-color="#FFEFC4"/>
</linearGradient>
<linearGradient id="paint33_linear_1166_6049" x1="957.865" y1="268" x2="957.865" y2="998" gradientUnits="userSpaceOnUse">
<stop stop-color="#FEF4D8"/>
<stop offset="1" stop-color="#FFEFC4"/>
</linearGradient>
<linearGradient id="paint34_linear_1166_6049" x1="988.514" y1="268" x2="988.514" y2="998" gradientUnits="userSpaceOnUse">
<stop stop-color="#FEF4D8"/>
<stop offset="1" stop-color="#FFEFC4"/>
</linearGradient>
<linearGradient id="paint35_linear_1166_6049" x1="1019.16" y1="268" x2="1019.16" y2="998" gradientUnits="userSpaceOnUse">
<stop stop-color="#FEF4D8"/>
<stop offset="1" stop-color="#FFEFC4"/>
</linearGradient>
<linearGradient id="paint36_linear_1166_6049" x1="1049.81" y1="268" x2="1049.81" y2="998" gradientUnits="userSpaceOnUse">
<stop stop-color="#FEF4D8"/>
<stop offset="1" stop-color="#FFEFC4"/>
</linearGradient>
<linearGradient id="paint37_linear_1166_6049" x1="1080.46" y1="268" x2="1080.46" y2="998" gradientUnits="userSpaceOnUse">
<stop stop-color="#FEF4D8"/>
<stop offset="1" stop-color="#FFEFC4"/>
</linearGradient>
<linearGradient id="paint38_linear_1166_6049" x1="1111.11" y1="268" x2="1111.11" y2="998" gradientUnits="userSpaceOnUse">
<stop stop-color="#FEF4D8"/>
<stop offset="1" stop-color="#FFEFC4"/>
</linearGradient>
<linearGradient id="paint39_linear_1166_6049" x1="1141.76" y1="268" x2="1141.76" y2="998" gradientUnits="userSpaceOnUse">
<stop stop-color="#FEF4D8"/>
<stop offset="1" stop-color="#FFEFC4"/>
</linearGradient>
<linearGradient id="paint40_linear_1166_6049" x1="1172.41" y1="268" x2="1172.41" y2="998" gradientUnits="userSpaceOnUse">
<stop stop-color="#FEF4D8"/>
<stop offset="1" stop-color="#FFEFC4"/>
</linearGradient>
<linearGradient id="paint41_linear_1166_6049" x1="1203.06" y1="268" x2="1203.06" y2="998" gradientUnits="userSpaceOnUse">
<stop stop-color="#FEF4D8"/>
<stop offset="1" stop-color="#FFEFC4"/>
</linearGradient>
<linearGradient id="paint42_linear_1166_6049" x1="1233.71" y1="268" x2="1233.71" y2="998" gradientUnits="userSpaceOnUse">
<stop stop-color="#FEF4D8"/>
<stop offset="1" stop-color="#FFEFC4"/>
</linearGradient>
<linearGradient id="paint43_linear_1166_6049" x1="1264.35" y1="268" x2="1264.35" y2="998" gradientUnits="userSpaceOnUse">
<stop stop-color="#FEF4D8"/>
<stop offset="1" stop-color="#FFEFC4"/>
</linearGradient>
<linearGradient id="paint44_linear_1166_6049" x1="1295" y1="268" x2="1295" y2="998" gradientUnits="userSpaceOnUse">
<stop stop-color="#FEF4D8"/>
<stop offset="1" stop-color="#FFEFC4"/>
</linearGradient>
<linearGradient id="paint45_linear_1166_6049" x1="1325.65" y1="268" x2="1325.65" y2="998" gradientUnits="userSpaceOnUse">
<stop stop-color="#FEF4D8"/>
<stop offset="1" stop-color="#FFEFC4"/>
</linearGradient>
<linearGradient id="paint46_linear_1166_6049" x1="1356.3" y1="268" x2="1356.3" y2="998" gradientUnits="userSpaceOnUse">
<stop stop-color="#FEF4D8"/>
<stop offset="1" stop-color="#FFEFC4"/>
</linearGradient>
<linearGradient id="paint47_linear_1166_6049" x1="1386.95" y1="268" x2="1386.95" y2="998" gradientUnits="userSpaceOnUse">
<stop stop-color="#FEF4D8"/>
<stop offset="1" stop-color="#FFEFC4"/>
</linearGradient>
<linearGradient id="paint48_linear_1166_6049" x1="1417.75" y1="268" x2="1417.75" y2="998" gradientUnits="userSpaceOnUse">
<stop stop-color="#FEF4D8"/>
<stop offset="1" stop-color="#FFEFC4"/>
</linearGradient>
<linearGradient id="paint49_linear_1166_6049" x1="720" y1="38.6967" x2="720" y2="0" gradientUnits="userSpaceOnUse">
<stop stop-color="#FFEDA2" stop-opacity="0"/>
<stop offset="1" stop-color="#FFFDF3"/>
</linearGradient>
<linearGradient id="paint50_linear_1166_6049" x1="720" y1="46" x2="720" y2="0" gradientUnits="userSpaceOnUse">
<stop stop-color="#FFEDA2" stop-opacity="0"/>
<stop offset="1" stop-color="#FFFDF3"/>
</linearGradient>
<clipPath id="clip0_1166_6049">
<rect width="1440" height="914" fill="white"/>
</clipPath>
<clipPath id="clip1_1166_6049">
<rect width="694" height="604" fill="white" transform="translate(0 310)"/>
</clipPath>
<clipPath id="clip2_1166_6049">
<rect width="737" height="604" fill="white" transform="translate(703 310)"/>
</clipPath>
</defs>
</svg>
