<svg xmlns="http://www.w3.org/2000/svg" viewBox="0 1.3 21 17.39">
  <g id="surface1">
  <path style=" stroke:none;fill-rule:nonzero;fill:rgb(0%,0%,0%);fill-opacity:1;" d="M 1.765625 1.320312 C 1.773438 1.332031 1.816406 1.386719 1.859375 1.4375 C 2.164062 1.800781 2.394531 2.394531 2.519531 3.140625 C 2.601562 3.628906 2.605469 3.785156 2.605469 5.652344 L 2.605469 7.390625 L 1.769531 7.390625 C 1.007812 7.390625 0.917969 7.386719 0.769531 7.359375 C 0.53125 7.308594 0.289062 7.175781 0.125 7.003906 C -0.0078125 6.863281 -0.00390625 6.855469 0.0078125 7.273438 C 0.015625 7.621094 0.0195312 7.65625 0.0703125 7.847656 C 0.148438 8.144531 0.261719 8.367188 0.425781 8.5625 C 0.652344 8.835938 0.882812 8.988281 1.210938 9.089844 C 1.28125 9.109375 1.429688 9.117188 1.953125 9.121094 L 2.605469 9.132812 L 2.605469 10.867188 L 1.683594 10.859375 L 0.757812 10.855469 L 0.597656 10.789062 C 0.40625 10.714844 0.320312 10.65625 0.136719 10.492188 L 0 10.371094 L 0.0078125 10.753906 C 0.0195312 11.105469 0.0195312 11.144531 0.0703125 11.324219 C 0.242188 11.960938 0.664062 12.414062 1.21875 12.5625 C 1.355469 12.601562 1.410156 12.605469 1.988281 12.613281 L 2.605469 12.621094 L 2.605469 14.410156 C 2.605469 15.492188 2.601562 16.292969 2.589844 16.429688 C 2.578125 16.550781 2.546875 16.785156 2.519531 16.945312 C 2.390625 17.691406 2.15625 18.253906 1.820312 18.617188 L 1.753906 18.691406 L 5.132812 18.691406 C 7.15625 18.691406 8.667969 18.683594 8.890625 18.675781 C 9.28125 18.652344 10.148438 18.566406 10.347656 18.527344 C 10.40625 18.515625 10.523438 18.496094 10.601562 18.484375 C 10.761719 18.460938 11.03125 18.402344 11.414062 18.304688 C 11.960938 18.171875 12.457031 18 12.941406 17.785156 C 13.09375 17.714844 13.53125 17.492188 13.644531 17.425781 C 13.707031 17.386719 13.78125 17.34375 13.808594 17.328125 C 13.886719 17.289062 14.019531 17.203125 14.207031 17.066406 C 14.300781 17 14.394531 16.933594 14.414062 16.921875 C 14.5 16.863281 14.789062 16.621094 14.921875 16.5 C 15.425781 16.039062 15.84375 15.523438 16.171875 14.972656 C 16.214844 14.894531 16.277344 14.792969 16.300781 14.753906 C 16.367188 14.640625 16.640625 14.078125 16.664062 13.996094 C 16.679688 13.957031 16.695312 13.917969 16.703125 13.910156 C 16.753906 13.84375 17.054688 12.898438 17.089844 12.691406 C 17.101562 12.625 17.109375 12.617188 17.15625 12.605469 C 17.191406 12.601562 17.65625 12.601562 18.195312 12.605469 C 19.269531 12.613281 19.269531 12.613281 19.507812 12.722656 C 19.640625 12.785156 19.683594 12.8125 19.828125 12.945312 C 20.023438 13.121094 20.007812 13.148438 19.992188 12.710938 C 19.984375 12.457031 19.976562 12.296875 19.957031 12.234375 C 19.890625 11.988281 19.875 11.9375 19.8125 11.8125 C 19.617188 11.382812 19.289062 11.078125 18.871094 10.933594 L 18.707031 10.871094 L 17.371094 10.855469 L 17.378906 10.621094 C 17.386719 10.3125 17.386719 9.703125 17.378906 9.386719 L 17.371094 9.136719 L 18.261719 9.132812 C 19.027344 9.128906 19.167969 9.132812 19.253906 9.152344 C 19.503906 9.222656 19.675781 9.320312 19.882812 9.511719 L 19.996094 9.617188 L 19.996094 9.320312 C 19.996094 8.96875 19.980469 8.8125 19.90625 8.582031 C 19.765625 8.113281 19.484375 7.761719 19.085938 7.546875 C 18.824219 7.40625 18.808594 7.402344 17.914062 7.394531 C 17.390625 7.390625 17.117188 7.382812 17.105469 7.371094 C 17.09375 7.359375 17.082031 7.339844 17.082031 7.324219 C 17.082031 7.308594 17.050781 7.183594 17.011719 7.046875 C 16.542969 5.390625 15.671875 4.078125 14.390625 3.105469 C 14.21875 2.96875 13.792969 2.6875 13.621094 2.59375 C 13.554688 2.554688 13.480469 2.515625 13.464844 2.503906 C 13.378906 2.457031 12.898438 2.21875 12.777344 2.171875 C 12.707031 2.136719 12.613281 2.097656 12.570312 2.082031 C 11.863281 1.777344 10.679688 1.484375 9.777344 1.394531 C 9.628906 1.382812 9.433594 1.359375 9.34375 1.351562 C 8.933594 1.304688 8.367188 1.300781 5.152344 1.300781 C 2.4375 1.300781 1.757812 1.304688 1.765625 1.320312 Z M 8.378906 2.1875 C 9.054688 2.226562 9.472656 2.277344 9.957031 2.394531 C 11.441406 2.746094 12.484375 3.492188 13.242188 4.734375 C 13.3125 4.851562 13.609375 5.457031 13.652344 5.578125 C 13.863281 6.144531 13.964844 6.480469 14.054688 6.925781 C 14.078125 7.03125 14.109375 7.175781 14.121094 7.242188 C 14.136719 7.308594 14.140625 7.371094 14.136719 7.378906 C 14.125 7.386719 12.117188 7.390625 9.671875 7.386719 L 5.21875 7.382812 L 5.214844 4.8125 C 5.210938 3.402344 5.214844 2.226562 5.21875 2.207031 L 5.226562 2.167969 L 6.648438 2.167969 C 7.429688 2.167969 8.210938 2.175781 8.378906 2.1875 Z M 14.328125 9.191406 C 14.34375 9.277344 14.34375 10.738281 14.328125 10.808594 L 14.316406 10.863281 L 9.769531 10.859375 L 5.21875 10.855469 L 5.214844 10.007812 C 5.210938 9.539062 5.214844 9.152344 5.21875 9.144531 C 5.226562 9.132812 7.164062 9.128906 9.773438 9.128906 L 14.316406 9.128906 Z M 14.125 12.625 C 14.136719 12.65625 14.089844 12.902344 13.988281 13.300781 C 13.878906 13.753906 13.726562 14.207031 13.570312 14.542969 C 13.496094 14.714844 13.304688 15.085938 13.261719 15.15625 C 13.238281 15.1875 13.175781 15.289062 13.117188 15.378906 C 12.757812 15.945312 12.242188 16.457031 11.65625 16.839844 C 11.445312 16.972656 11.003906 17.207031 10.886719 17.242188 C 10.863281 17.246094 10.835938 17.261719 10.824219 17.269531 C 10.8125 17.28125 10.628906 17.347656 10.417969 17.425781 C 10.027344 17.5625 9.285156 17.710938 8.691406 17.773438 C 8.304688 17.8125 8.242188 17.8125 6.757812 17.8125 L 5.21875 17.8125 L 5.21875 12.625 L 9.636719 12.617188 C 12.066406 12.613281 14.066406 12.605469 14.085938 12.601562 C 14.101562 12.601562 14.121094 12.613281 14.125 12.625 Z M 14.125 12.625 ">
    </path>
  </g>
</svg>
